<svg enable-background="new 0 0 301.9 300" height="315.299956" viewBox="0 0 301.9 300" width="317.158306" xmlns="http://www.w3.org/2000/svg" xmlns:xlink="http://www.w3.org/1999/xlink"><clipPath id="a"><path d="m136.1 185.2c.8 1.9 4.5 3.1 4.5 3.1l.6-1.2c-1.5-.1-4.8-3.6-4.8-3.6s0 0-.1 0c-.3 0-.9.2-.2 1.7"/></clipPath><clipPath id="b"><path d="m-732.2-3370.6h12649v8241h-12649z"/></clipPath><clipPath id="c"><path d="m147.8 150.6-.6 1.2.2.4c2.4.2 4.2-.7 4.5-1.9l-.2-1.4z"/></clipPath><clipPath id="d"><path d="m-732.2-3370.6h12649v8241h-12649z"/></clipPath><clipPath id="e"><path d="m133.8 196.1s2.3 2.5 5.3 1.8c0 0-3.3-1-4.2-2.4z"/></clipPath><clipPath id="f"><path d="m-732.2-3370.6h12649v8241h-12649z"/></clipPath><clipPath id="g"><path d="m127.3 199.2.9-.1c-1.3-.6-3.4-4.4-3.4-4.4 0 2.1 2 4.2 2.5 4.5"/></clipPath><clipPath id="h"><path d="m-732.2-3370.6h12649v8241h-12649z"/></clipPath><clipPath id="i"><path d="m123.2 203.6c-1.6-.3-2.2-2.1-2.2-2.1-.1 2 2.2 2.1 2.2 2.1"/></clipPath><clipPath id="j"><path d="m-732.2-3370.6h12649v8241h-12649z"/></clipPath><clipPath id="k"><path d="m139.1 190.9s-2.4-1-4-3.8c0 0 1.5 6 4 3.8"/></clipPath><clipPath id="l"><path d="m-732.2-3370.6h12649v8241h-12649z"/></clipPath><clipPath id="m"><path d="m139.5 191c2.3 2.5 5.2.4 5.2.4-2 .4-4.6-1.6-4.6-1.6z"/></clipPath><clipPath id="n"><path d="m-732.2-3370.6h12649v8241h-12649z"/></clipPath><clipPath id="o"><path d="m141.6 187.4c.3 1.1 3.1 2 5.6.1 0 0-3.7 0-4.9-1.3z"/></clipPath><clipPath id="p"><path d="m-732.2-3370.6h12649v8241h-12649z"/></clipPath><clipPath id="q"><path d="m142.9 183.8.9-1.1c-1.5-.1-4.9-3.2-4.9-3.2.6 2.7 3.2 4.5 4 4.3"/></clipPath><clipPath id="r"><path d="m-732.2-3370.6h12649v8241h-12649z"/></clipPath><clipPath id="s"><path d="m144.3 183.4c4.7 2.1 5.9-1 5.9-1-2.7.7-5.7-.8-5.7-.8-1.4.5-.2 1.8-.2 1.8"/></clipPath><clipPath id="t"><path d="m-732.2-3370.6h12649v8241h-12649z"/></clipPath><clipPath id="u"><path d="m144.8 179.9.6-1.8c-1.8 0-5.1-2.8-5.1-2.8.3 4.3 4.5 4.6 4.5 4.6"/></clipPath><clipPath id="v"><path d="m-732.2-3370.6h12649v8241h-12649z"/></clipPath><clipPath id="w"><path d="m145.9 177.4s-.9 1.1.4 1.2c1.3.2 4.3 1.3 5.9-1.6 0 0-2.3 1.3-6.3.4"/></clipPath><clipPath id="x"><path d="m-732.2-3370.6h12649v8241h-12649z"/></clipPath><clipPath id="y"><path d="m141.1 171.9c1 1.9 4.8 3.2 5.3 2.9l.6-1.7-5.4-2.3z"/></clipPath><clipPath id="z"><path d="m-732.2-3370.6h12649v8241h-12649z"/></clipPath><clipPath id="A"><path d="m147.7 171.1-.4 2s1.8.3 3.9-.3c2.1-.5 2.7-1.8 2.7-1.8-.5-.1-1.4-.2-2.3-.2-1.8.1-3.9.3-3.9.3"/></clipPath><clipPath id="B"><path d="m-732.2-3370.6h12649v8241h-12649z"/></clipPath><clipPath id="C"><path d="m141.5 167 6.1 2.5.1-2.1c-1.7-1.4-6.4-1.8-6.4-1.8z"/></clipPath><clipPath id="D"><path d="m-732.2-3370.6h12649v8241h-12649z"/></clipPath><clipPath id="E"><path d="m148.4 166.6.2 1.3 4.5-.9.4-1.7z"/></clipPath><clipPath id="F"><path d="m-732.2-3370.6h12649v8241h-12649z"/></clipPath><clipPath id="G"><path d="m142.8 162.9c.9 1.4 5 1.7 5 1.7l.1-1.8c-1.6-.8-6-1.4-6-1.4z"/></clipPath><clipPath id="H"><path d="m-732.2-3370.6h12649v8241h-12649z"/></clipPath><clipPath id="I"><path d="m148.1 161.5.4 1.3 4.4-1.4 1-1.9z"/></clipPath><clipPath id="J"><path d="m-732.2-3370.6h12649v8241h-12649z"/></clipPath><clipPath id="K"><path d="m141.2 157.1.5.7 6 .8-.5-1.8-5-.3z"/></clipPath><clipPath id="L"><path d="m-732.2-3370.6h12649v8241h-12649z"/></clipPath><clipPath id="M"><path d="m147.9 156.5.1 1.2s2.4-.3 4.1-1.3c1.7-.9 1-2 1-2-.1 0-.2 0-.3 0-1.5 0-4.4 1.5-4.9 2.1"/></clipPath><clipPath id="N"><path d="m-732.2-3370.6h12649v8241h-12649z"/></clipPath><clipPath id="O"><path d="m141.3 151.5-.8 1.4 6.7.8-.6-1.9c-1-.5-2.1-.7-3.1-.7-.9 0-1.7.2-2.2.4"/></clipPath><clipPath id="P"><path d="m-732.2-3370.6h12649v8241h-12649z"/></clipPath><clipPath id="Q"><path d="m139.6 147.6.4 1.3 6.5-.2c.1-1.4-.9-2-.9-2-.4-.2-1-.2-1.5-.2-1.8 0-3.8.8-4.5 1.1"/></clipPath><clipPath id="R"><path d="m-732.2-3370.6h12649v8241h-12649z"/></clipPath><clipPath id="S"><path d="m136.4 193.5c.3 1 2.8 2.3 5.2 1.3 0 0-3.4-.9-4.2-2.2z"/></clipPath><clipPath id="T"><path d="m-732.2-3370.6h12649v8241h-12649z"/></clipPath><clipPath id="U"><path d="m135.8 194.1.4-1.2c-1.4-.8-3.4-3.4-3.4-3.4-.9 2.5 2.3 4.6 3 4.6"/></clipPath><clipPath id="V"><path d="m-732.2-3370.6h12649v8241h-12649z"/></clipPath><clipPath id="W"><path d="m130.3 193.8 2.8 2.5.5-.8c-1.5-.3-3.6-3.6-3.6-3.6z"/></clipPath><clipPath id="X"><path d="m-732.2-3370.6h12649v8241h-12649z"/></clipPath><clipPath id="Y"><path d="m131.1 197.7s2.1 2.9 5.3 2.4c0 0-3.3-.9-4.3-2.7z"/></clipPath><clipPath id="Z"><path d="m-732.2-3370.6h12649v8241h-12649z"/></clipPath><clipPath id="aa"><path d="m127.8 195.9 2.4 2.2.6-.9c-1.5-.6-3.4-3.7-3.4-3.7z"/></clipPath><clipPath id="ab"><path d="m-732.2-3370.6h12649v8241h-12649z"/></clipPath><clipPath id="ac"><path d="m128.5 199.2s1.9 2.2 4.7 2.4c0 0-2.9-1-3.6-2.7z"/></clipPath><clipPath id="ad"><path d="m-732.2-3370.6h12649v8241h-12649z"/></clipPath><clipPath id="ae"><path d="m126.4 200.1s1.5 3 4.6 2.8c0 0-2.9-.9-3.9-3z"/></clipPath><clipPath id="af"><path d="m-732.2-3370.6h12649v8241h-12649z"/></clipPath><clipPath id="ag"><path d="m122.4 197.3 2.5 2.7 1.3-.4-2.8-2.6-1.2-1.9z"/></clipPath><clipPath id="ah"><path d="m-732.2-3370.6h12649v8241h-12649z"/></clipPath><clipPath id="ai"><path d="m124.2 201.2c.1.3 1.7 2.2 3.3 2.2 0 0-2.4-1.6-2.9-2.8z"/></clipPath><clipPath id="aj"><path d="m-732.2-3370.6h12649v8241h-12649z"/></clipPath><clipPath id="ak"><path d="m120.8 198.8 1.8 2 1.3-.1-1.4-1-1.8-1.8-.7-1.5z"/></clipPath><clipPath id="al"><path d="m-732.2-3370.6h12649v8241h-12649z"/></clipPath><clipPath id="am"><path d="m125.5 204-.1-.1-2.6-2.6s.2 2.5 2.7 2.7"/></clipPath><clipPath id="an"><path d="m-732.2-3370.6h12649v8241h-12649z"/></clipPath><clipPath id="ao"><path d="m121.5 200.8s-2.2-1.4-2.9-3.3c0 0 .3 3.3 2.9 3.3"/></clipPath><clipPath id="ap"><path d="m-732.2-3370.6h12649v8241h-12649z"/></clipPath><clipPath id="aq"><path d="m119.6 200.5s-2-1.1-2.5-3.4c0 0 .3 3.2 2.5 3.4"/></clipPath><clipPath id="ar"><path d="m-732.2-3370.6h12649v8241h-12649z"/></clipPath><clipPath id="as"><path d="m123 203.7c-1.7-.4-2.4-2.9-2.4-2.9-.2 2.6 2.4 2.9 2.4 2.9"/></clipPath><clipPath id="at"><path d="m-732.2-3370.6h12649v8241h-12649z"/></clipPath><clipPath id="au"><path d="m118.7 200.2s-1.9-1.4-2.1-3c.1 0 0 2.5 2.1 3"/></clipPath><clipPath id="av"><path d="m-732.2-3370.6h12649v8241h-12649z"/></clipPath><path d="m301.9 150c0 40.1-15.6 77.7-43.9 106.1-13.8 13.8-29.8 24.6-47.7 32.2-18.5 7.8-38.1 11.8-58.4 11.8-40.1 0-77.7-15.6-106.1-43.9-28.3-28.5-43.9-66.1-43.9-106.2 0-20.2 4-39.9 11.8-58.4 7.5-17.9 18.3-33.9 32.1-47.7 28.4-28.3 66-43.9 106.1-43.9 20.3 0 39.9 4 58.4 11.8 17.9 7.6 33.9 18.4 47.7 32.1 13.8 13.8 24.6 29.8 32.1 47.7 7.8 18.5 11.8 38.1 11.8 58.4" fill="#fff"/><path d="m151.9 3.3c-81.1 0-146.8 65.7-146.8 146.7 0 81.1 65.7 146.7 146.7 146.7s146.7-65.7 146.7-146.7c.1-81-65.6-146.7-146.6-146.7m0 279.8c-73.5 0-133.2-59.6-133.2-133.1s59.6-133.2 133.2-133.2c73.5 0 133.1 59.7 133.1 133.2s-59.6 133.1-133.1 133.1" fill="#592c81"/><path d="m285 150c0 73.5-59.6 133.1-133.1 133.1s-133.2-59.6-133.2-133.1 59.6-133.2 133.2-133.2c73.5 0 133.1 59.7 133.1 133.2" fill="#f9d121"/><path d="m239.8 150c0 48.5-39.4 87.9-87.9 87.9s-87.9-39.3-87.9-87.9 39.3-87.9 87.9-87.9c48.5 0 87.9 39.3 87.9 87.9" fill="#f5aa23"/><path d="m74.6 95.4-.1-.5-.4-.9-.6-.8-6.6-5.1-.9-.3-.9-.1h-.5l-.2-.2-.1-.5-.3-.7-.6-.7-6.6-5.1-.9-.5h-.9-.5l-.2-.1 8.2-10.6 4.3-.6 6 4.6.9.4.9.1h.5l.2.1.1.5.3.8.6.7 6 4.6.6 4.4-8.2 10.6zm.3-7.6 2.7-3.5-.1-1.1-11.8-9.1-1.1.1-2.7 3.5z" fill="#592c81"/><path d="m91.4 71.8-4.4-6.2-.7-.6-.8-.4-.5-.1-.1-.2v-.5l-.1-.9-.3-.9-4.4-6.2.8-4.3 8-5.6 4.3.7 4.4 6.2.7.6.8.4.5.1.1.2v.5.9l.4.9 4.4 6.2-.7 4.3-8 5.6zm3.9-4.6 3.4-2.4.2-1.1-8.6-12.2-1.1-.2-3.4 2.4-.2 1.1 8.7 12.2z" fill="#592c81"/><path d="m115.6 60.1.2-.4.2-.9-.1-1-2.6-8-.5-.8-.7-.6-.4-.3-.1-.2.2-.5.2-.9-.1-1-2.6-8-.5-.8-.7-.6-.4-.3-.1-.2 12.7-4.2 3.9 1.9.9 2.6.5.8.7.6.4.3.1.3-.2.4-.2.9.1.9.8 2.6-1.8 3.5 4.3 6.8.8.7.9.5.6.2.1.2-6.9 2.2-.1-.2.1-.3.1-.6-.1-.8-.2-.4-4.1-6.5-2.5.8 2.3 7.1.5.8.7.6.4.3.1.2-6.9 2.2zm1.5-15.4 4.2-1.4.5-1-1.6-4.9-1-.5-4.2 1.4z" fill="#592c81"/><path d="m140.1 53.2.4-.4.6-.8.4-.9 1.6-8.6-.1-.9-.3-.8-.2-.4.1-.3.4-.3.6-.6.4-.9 1.5-8.4v-.4l-.1-.7-.3-.6-.2-.3v-.3l9.2-.2v.3l-.2.3-.2.6-.1.8v.4l1.9 8.3.4.9.6.6.4.3v.2l-.2.4-.3.7-.1.8v.3l1.9 8.5.4.9.7.8.4.4v.2l-7 .1v-.2l.2-.3.3-.6.1-.8v-.4l-.8-3.8-5.4.1-.7 3.9v.4l.1.8.3.6.2.3v.2l-7 .2zm8-10.7 3.4-.1-1.8-8.2z" fill="#592c81"/><path d="m168.4 54.1.4-.3.7-.6.5-.8 2.3-8v-.9l-.2-.9-.2-.4.1-.2.4-.3.7-.6.5-.8 2.3-8v-.9l-.3-.9-.2-.4.1-.2 12.9 3.7 2.1 3.8-2.1 7.3v1l.2.9.2.4-.1.2-.4.3-.7.6-.5.8-2.1 7.3-3.9 2.1-12.9-3.7zm7.2-2.6 4.2 1.2 1-.5 4.1-14.4-.5-1-4.2-1.2z" fill="#592c81"/><path d="m196.5 61 4.2-6.4.3-.9v-.9l-.1-.5.1-.2.5-.1.8-.4.7-.6 4.2-6.3 4.3-.9 8.2 5.4.9 4.3-4.2 6.3-.3.9v.9l.1.5-.1.2-.5.1-.8.4-.7.6-4.2 6.4-4.3.9-8.2-5.4zm5.8 2 3.5 2.3 1-.2 8.2-12.5-.2-1.1-3.5-2.3-1.1.2-8.2 12.5z" fill="#592c81"/><path d="m218.5 77.5 4.7-4 2.6 5.9-.2.2-.5-.1-.7.1-.8.3-.1 1.1 2 2.4 1.1.1 2.4-2.1-.5-3.6-.6-1.2-.4-.5-.3-.2v-.2l.2-.5.4-.8.1-.9-.5-3.6 6-5.1 4.3.4 5.7 6.6-.3 4.4-4.7 4-2.6-5.9.1-.2.5.1h.7l.8-.4.1-1.1-2-2.4-1.1-.1-2 1.8.5 3.6.6 1.2.5.5.2.2.1.2-.3.4-.4.9-.1.9.5 3.5-6.3 5.5-4.4-.4-5.7-6.6z" fill="#592c81"/><path d="m28.1 170.3.4.2.9.3h1l8.1-2.2.8-.5.6-.7.3-.4.2-.1.4.2.9.3h1l8.1-2.2.8-.5.6-.6.3-.4.2-.1 3.5 12.9-2.2 3.8-7.3 2-.8.5-.6.7-.3.4-.2.1-.4-.2-.9-.3h-.9l-7.3 2-3.8-2.2-3.5-12.9zm5.9 4.9 1.1 4.2 1 .6 14.4-3.9.5-.9-1.1-4.2z" fill="#592c81"/><path d="m38.7 201.5.5.1.9.1.9-.3 7.3-4.1.7-.6.5-.8.1-.5.2-.1.5.1h.9l1-.2 7.3-4.1.7-.7.4-.8.2-.4.2-.1 6.9 12.3-4.9 2.8-.2-.2.1-.5.1-.9-.3-1-2.7-4.9-5.2 2.9 1.6 2.9.7.7.7.5.5.1.1.2-5.8 3.3-.1-.2.1-.5v-.9l-.2-.9-1.7-2.9-5.1 2.9 2.7 4.9.7.7.8.4.4.2.2.2-5 2.8-6.9-12.4z" fill="#592c81"/><path d="m71 239 4.6-6 .4-.9.1-.9v-.4l.1-.2.5-.1.8-.4.8-.6 4.6-6 4.4-.5 7.3 5.6.6 4.4-2.9 3.7-6-2.3.2-.3.5-.1.9-.5.8-.6 1-1.2-.2-1.1-2.8-2.2-1.1.1-9.1 11.9.1 1 2.9 2.2 1-.1 1-1.2.3-.9v-.7-.4l.1-.3 6 2.4-4.7 6.1-4.3.5-7.4-5.6z" fill="#592c81"/><path d="m95 258.7.5-.2.7-.5.5-.8 3.4-7.8.1-.9-.2-.9-.1-.5.1-.2.4-.2.7-.5.6-.7 3.3-7.9.1-.9-.1-.8-.2-.5.1-.2 6.7 2.8-.1.2-.5.2-.7.5-.6.8-3.2 7.6 4.8 2 3.2-7.6.1-.9-.1-.9-.2-.5.1-.2 6.7 2.8-.1.2-.5.2-.7.5-.6.8-3.2 7.7-.2 1 .2.9.1.4-.1.3-.4.2-.8.5-.5.7-3.3 7.8-.1.9.1.9.2.5-.1.2-6.7-2.8.1-.2.4-.2.8-.6.6-.7 3.2-7.6-4.8-2-3.2 7.6-.1.9.1.9.1.5v.2l-6.7-2.8z" fill="#592c81"/><path d="m125.6 269.2.4-.3.6-.6.4-.9 1.5-8.3v-.9l-.3-.8-.3-.5v-.2l.4-.3.6-.7.4-.9 1.5-8.2v-.9l-.3-.9-.3-.4.1-.2 7 1.3v.2l-.4.3-.6.7-.4.8-1.5 8.3.1.9.3.9.2.4v.2l-.4.4-.6.6-.4.9-1.5 8.2.1 1 .3.8.2.4v.3l-7.1-1.3z" fill="#592c81"/><path d="m147.7 272.2.3-.4.5-.8.1-.8-.3-8.6-.2-.8-.5-.7-.4-.4v-.3l.3-.3.5-.8.2-.9-.3-8.5-.3-.9-.5-.7-.3-.3v-.3l7.2-.3v.3l-.3.4-.5.7-.2 1 .3 8.2 5.2-.2-.3-8.2-.3-.9-.5-.8-.3-.3v-.3l7.2-.2v.2l-.3.4-.5.8-.2.9.3 8.4.3.9.5.7.3.4.1.3-.4.3-.4.8-.2.9.3 8.4.3.9.5.8.3.3v.3l-7.2.3v-.3l.3-.4.5-.8.2-.9-.3-8.2-5.2.2.3 8.2.3.9.5.8.3.3v.3l-7.2.2z" fill="#592c81"/><path d="m180.9 265.9-2.3-7.3-.5-.8-.7-.6-.4-.3v-.2l.2-.4.2-.9-.1-1-2.5-8-.5-.8-.6-.6-.5-.2v-.3l6.8-2.1.1.2-.2.5-.2.9.1.9 5.3 17.2 1 .5 3.4-1 .5-1-5.3-17.2-.5-.9-.7-.5-.4-.3-.1-.2 6.9-2.2.1.3-.2.4-.2.9v.9l2.5 8 .5.9.7.6.4.2.1.3-.2.4-.3.9.1.9 2.2 7.3-2 3.9-8.8 2.7z" fill="#592c81"/><path d="m210.5 257.9.2-.5.1-1-.1-1-3.1-8.2-.5-.7-.7-.5-.4-.2-.1-.3.2-.5.2-.9-.1-.9-3-8-.2-.4-.5-.6-.5-.4-.3-.2-.1-.2 7.8-4.9.1.2v.4l.1.6.3.7.2.3 5.9 6.2.8.5.9.2h.5l.2.2v.4l.1.7.3.8.2.2 6.1 6.3.8.6 1 .3.5.1.1.2-5.9 3.7-.1-.2v-.4l-.1-.6-.3-.7-.3-.3-2.7-2.9-4.6 2.9 1.4 3.7.2.4.5.6.6.4.3.2.1.2-5.9 3.7zm1.4-13.4 2.8-1.8-5.8-6.1z" fill="#592c81"/><path d="m238.3 238-.1-.4-.2-.9-.5-.8-6.3-5.8-.8-.4-.8-.1h-.5l-.2-.2-.1-.5-.2-.9-.5-.7-6.2-5.8-.8-.4-.9-.2h-.5l-.2-.2 4.9-5.3.2.2.1.5.2.8.5.8 6.1 5.7 3.5-3.8-6.1-5.6-.8-.5-.9-.2h-.5l-.2-.2 4.9-5.2.2.1.1.5.2.9.5.8 6.2 5.7.8.4.9.2h.5l.2.2v.5l.3.8.5.8 6.1 5.7.9.5.9.2h.5l.1.2-4.9 5.2-.1-.1-.1-.5-.2-.9-.6-.8-6-5.6-3.5 3.8 6 5.6.9.5.9.1.5.1.1.1-4.9 5.3z" fill="#592c81"/><path d="m257.2 210.1-6.8-3.6-.9-.2-.9.1-.4.1-.3-.1-.2-.5-.4-.7-.7-.7-7.5-3.9-.9-.2-.9.1-.5.1-.2-.1 3.4-6.4.2.1.2.5.4.7.7.7 16 8.3 1.1-.3 1.6-3.2-.3-1-16-8.4-.9-.2h-.9l-.5.2-.2-.2 3.3-6.3.3.1.2.4.4.8.7.6 7.4 3.9 1 .2h.9l.4-.1.3.1.2.4.4.8.7.6 6.7 3.6 1.4 4.2-4.3 8.2z" fill="#592c81"/><path d="m272.4 183.4-.3-.5-.6-.8-.8-.6-8-3.6-.9-.1-.9.1-.5.1-.2-.1-.2-.5-.5-.7-.7-.6-7.8-3.5-.4-.1-.8-.1-.6.1-.3.1-.2-.1 2-8.9.2.1.3.2.5.4.7.3.4.1 8.6.1.9-.2.8-.5.4-.3h.2l.3.2.6.4.8.3h.3l8.7.2 1-.2.9-.5.5-.3.2.1-1.6 6.9-.2-.1-.3-.2-.5-.4-.7-.3-.4-.1-3.9-.1-1.2 5.2 3.6 1.6.4.1.8.1.6-.1.3-.1h.2l-1.5 6.9zm-8.5-10.3.7-3.3-8.4-.2z" fill="#592c81"/><path d="m200.2 140.4-.3.3v-.1h.1l.2-.1z" fill="#592c81"/><path d="m202.9 146.1-.4-.7z" fill="#592c81"/><path d="m212.9 168.2h-.1l-.1.1.1-.1z" fill="#592c81"/><path d="m143.9 145-.4.2zm0 0-.4.2zm0 0-.4.2zm0 0-.4.2zm0 0-.4.2zm0 0-.4.2zm0 0-.4.2zm0 0-.4.2zm0 0-.4.2zm0 0-.4.2zm0 0-.4.2zm0 0-.4.2zm0 0-.4.2zm0 0-.4.2zm0 0-.4.2zm0 0-.4.2zm0 0-.4.2zm0 0-.4.2zm0 0-.4.2zm0 0-.4.2zm0 0-.4.2zm0 0-.4.2zm0 0-.4.2zm0 0-.4.2zm0 0-.4.2zm0 0-.4.2zm0 0-.4.2zm0 0-.4.2zm0 0-.4.2zm0 0-.4.2zm0 0-.4.2zm0 0-.4.2zm0 0-.4.2zm0 0-.4.2zm0 0-.4.2zm0 0-.4.2zm-43.6 7.6 1.4.2.4.1.4.1zm45.6-3.9-1.1-2.7-.3-.7-.1-.1-.2-.1-.2-.1-.4.2h-.1l-.7.4.8 1.7 1.4 3.5 2.2 1.4.1.1zm-25.8-8.5-.2.3.2-.3.1-.1zm.9-1.4-.1.2.1-.2.1-.1zm22.9 6.2-.4.2zm0 0-.4.2zm0 0-.4.2zm0 0-.4.2zm0 0-.4.2zm0 0-.4.2zm0 0-.4.2zm0 0-.4.2zm0 0-.4.2zm0 0-.4.2zm0 0-.4.2zm0 0-.4.2zm0 0-.4.2zm0 0-.4.2zm0 0-.4.2zm0 0-.4.2zm0 0-.4.2zm0 0-.4.2zm0 0-.4.2zm0 0-.4.2zm0 0-.4.2zm0 0-.4.2zm0 0-.4.2zm0 0-.4.2zm0 0-.4.2zm0 0-.4.2zm0 0-.4.2zm0 0-.4.2zm0 0-.4.2zm0 0-.4.2zm0 0-.4.2zm0 0-.4.2zm0 0-.4.2zm0 0-.4.2zm0 0-.4.2z" fill="#592c81"/><path d="m100.3 152.6 1.4.2.4.1.4.1zm-1.5-.3.7.1.7.1zm108.3 19h.3zm-.6 0c-.7 0-1.8 0-3.2 0h-.6l-1.3-.1c1.7.1 3.5.2 5.3.1zm-5.7-.2h-.1-.4.4zm-53.7-18.9-1.2-3.5-1.1-2.7-.3-.7-.2-.5-.3.2-.4.2h-.1l-.7.4.8 1.7 1.4 3.5c.6 1.6 1 3.3 1.4 4.9l2.1 1.3c-.5-1.6-.9-3.2-1.4-4.8m-19.9 45.7c-3.1 1.3-6.1 1.9-8.6 2.3l-3.3.4.1 1.7c1.3-.1 2.9-.3 4.7-.6 2.6-.5 5.5-1.3 8.6-2.6zm6.8 4.3c-1.6-.8-3.2-1.7-4.7-2.8l.4.4.4.3.3.2.3.3.1.1.4.3h.1l.6.5.5.4.2.1.2.1.7.5.9.6.2.1zm23.9 7.5h.4zm-36.9-70.9-.1.2.1-.2.1-.1zm-.9 1.4-.2.3.2-.3.1-.1zm-.4.6-.1.1zm-.8 1.3-.4.6.4-.6.2-.4zm66.7 25.9.3.1zm-1.3-.5-1.1-.5 1.1.5 1.2.5zm-5.3-2.6-.3-.1-.2-.1.7.4zm.6.3-.3-.1.3.1.2.1zm-29.2-17.3.4.2zm-27.7-12.6-.8-.3-1.6-.5 1.6.5.8.3.6.2zm-25.3 19.9.6.1zm84.5 5.8.2.2zm44.4-4.2-.2.1zm-33.1-15.3h.1.1zm-15.5.3h-.2-.2-.4.6.2.2zm-2.5.1h-.2-.2-.1.7zm-1.9 0h-.4.5zm-4.1.1h-.3-.3-1.6-.3-.3zm-10.3-46.1v.1zm-12.8-4.6h-.2.2.2z" fill="#592c81"/><path d="m232.6 131.5-.2-.5-.1-.1-.1-.1v-.1-.1l-.1-.1v-.1-.1-.1l-.1-.2-.1-.1-.1-.1-.1-.1-.1-.1-.1-.2-.2-.3-.1-.2-.1-.1v-.1l-.1-.2-.1-.2v-.1l-.1-.2-.1-.2v-.1l-.3-.4-.7-.8-.1-.1-.1-.1-.1-.1-.1-.1-.4-.4-.2-.2-.2-.2-.2-.2-.3-.1-.1-.1-.2-.2-.2-.1-.4-.3-.2-.2-.1-.1-.1-.1-.1-.1-.1-.1c-2.7-1.5-5.5-1.7-8.9-1.9l-2.7-.1h-1.4-.5-.6l-1.2.1-1.1.1-1.6.2-.5.1h-.1l-.4.1h-.3l-.4.1-.4.1-.8.1-.3.1h-.1-.1-.1-.1l-.6.1-.5.1h-.1l-.2.1h-.2-.2l-.5.1v.1.1.3.1.1.4.3.3.1.1.3.3.3.3.8.3 1.1l-.1 2.3v.9.4.4.8.2.2.4.4.3.2.2.5.5.3l-.1.6c-.2 1.3-.6 2.3-1.4 3.2l-.3.3-.2.1-.3.1-.5.2-3.1.3h-1-.3-.2-.4-.1-.2-.2-.1-.1-.7-1.3-.4-.7-.4-.4-.6-.4-.3-.6-.3-.5-1.5-.7-.7-.3-1.5-.3-.4-.7-.1-.1-.4-.7-.3-.3-.2-.1-.2-.2-.2-.2-.6-.2-1.2-.1-.1-.7-.7-.2-.2-.5-.1-.3-.2-.4-.8-1.1-.7l.1.1h-2.8-.3l-2.9-2.7-.1-.1-2.9-2.6c-4.2-3.7-8.8-7.5-13.6-11.2-6.3-4.9-12.5-9.3-18.4-13.3 1.2-.1 2.5-.2 3.7-.4l3.4-.4.6-.1h.1.2.1.1.1l2.1-.5h.1.1.1.1.1l.1-.1.6-.2 1.2-.4 1.1-.4.3-.1h.1l.1-.1.3-.1.3-.1.3-.1h.1.1l.2-.1.3-.1.2-.1.8-.3.5-.2.3-.1.1-.1h.1l.1-.1.2-.1h.1.1.1.1.1l.2-.1.2-.1.1-.1.1-.1.3-.1.2-.1.4-.2 2.6-1.4.8-.5.2-.1.2-.1.8-.6.4-.3 1.5-1.3.5-.6 2-2.7.7-1.6.1-.6v-.5-.3-.1-.1-.1-.1-.1-.1-.1l-.2-.5-.2-.4v-.1l-.2-.2v-.1l-.1-.1v-.1-.1l-.1-.2-.2-.2-.3-.3-.7-.5-.4-.2-.8-.4-.8-.3h-.1-.2l-.3-.1-.6-.2-1.1-.2-.8-.1h-.5-.4-.1-.1-.1-.1-.1-.3-1.3-.6-.3-.3-.3l-.7.1h-.2-.2-.2-.3l-1.5.2h-.1l-1 .1-1 .2-.5.1-.5.1-.6.1-.6.1-1.3.3h-.1-.1l-.3.1-.5.1-1 .3-1.3.4-2.5.9-1.2.5-1.8.8-1.6 1-.8.5-1.2 1-.6.6-.5.6-.8 1-.7 1.1-.6 1.1-.1.3-.1.3-.5 1.3-.4 1.3-.6 2.4-.3 1.2-.3 1.2-.1.6-.1.6-.2 1v.2.2c1.9 1.1 3.8 2.3 5.8 3.5l3 1.9c2.5 1.6 5 3.3 7.6 5.2l3.1 2.2c1.6 1.1 3.1 2.3 4.7 3.5l.1.1.6.5c6.8 5.2 12.3 10.2 13.7 11.5l.1.1.1.1.1.1.1.1c2.6 2.5 4.2 4 5.3 5.2l.2.2.1.1.1.2.1.1.6.6.1.1 1.7 1.7.4.4 1.8 1.6c.3.3 5.3 4.5 11.9 8.8 1.8 1.1 3.6 2.2 5.6 3.2l1 .5 1 .5.3.2.3.2 1.4.6 1.4.6c2.1.8 4.1 1.5 6.2 2h.1l.4.1h.2.1.2.1.3l1.1.2.6.1h.2.2.1.2.1l2.3.1h.1c1.3 0 2.5-.1 3.6-.2h.1.2.1.1.1.1.2.2.2l.3-.1h.3l.5-.1.5-.1.5-.1h.1.1l.3-.1h.1.1.1l.2-.1h.2l.3-.1.6-.1.3-.1h.1.1l.2-.1h.1l.2-.1h.1l.2-.1.2-.1 1.1-.3 1-.4.3-.1.3-.1.5-.2.5-.2.6-.3.5-.2 3.3-1.9.6-.4.6-.4 1.6-1.4.5-.5.9-1 .1-.1.2-.2.1-.2v-.1l.1-.1.1-.1.1-.2.3-.4c6.1-8.1 6.6-17.5 3.1-27m-50.7 29.5.2.2zm44.5-4.1-.1.2-.1.2-.2.3v.1.1l-.1.1c-.8 1.1-1.8 2.3-3 3.4-5.4 4.8-12 5.2-14.5 5.2h-.1c-7.8.4-14.1-2.8-20.4-6.9l-.6-.4-2.7-1.8-1-.7-1.9-1.4-1.7-1.3-1.1-.9-2.2-1.8-.3-.3-2.9-2.6-2.5-2.4c4.3-.4 7.8-.6 10.2-.7 2.9-.2 4.7-.2 12.9-.6 1.9-.1 3.8-.2 5.6-.3l2.8.9c1.2.4 2.5.9 3.8 1.5 1.5.6 3.1 1.4 4.7 2.2 1.9 1 3.6 2.1 5.2 3.1 2.1 1.3 4.3 2.7 6.4 4l1.3.8c-2.2-3.8-5.2-6.4-8.4-8.6s-6.6-4.3-9.9-6.4c8.3 2.9 16 6.7 20.7 14.7z" fill="#592c81"/><path d="m118.9 142.1-.4.6.4-.6.2-.4z" fill="#f2f1f1"/><path d="m119.6 140.9-.1.1.1-.1.1-.1z" fill="#f2f1f1"/><path d="m120.1 140.2-.2.3.2-.3.1-.2z" fill="#f2f1f1"/><path d="m129.1 199.2.1.1-.4-.3c-3.1 1.3-6 2.1-8.6 2.6l-1.6-1.5c2.5-.4 5.5-1.1 8.6-2.3l.2-.1.6.5.2.2.5.4.1.1z" fill="#f2f1f1"/><path d="m130.5 200.4.5.3-.2-.1z" fill="#f2f1f1"/><path d="m184.3 201.2-.2.1-.1.1z" fill="#f2f1f1"/><path d="m237.8 141.9v-.5-.1-.3-.9-.6l-.1-.6-.2-1.8-.1-.7-.4-1.4-.2-.7-.2-.6-.1-.2v-.1-.1l-.1-.4-.1-.3-.1-.2-.1-.2-.1-.2-.2-.4-.2-.4-.1-.2-.1-.2-.2-.4-.1-.1-.3-.6-.3-.6-.4-.6-.4-.6-.2-.3-.2-.3-.2-.3-.2-.3-.3-.4-.6-.8-.3-.4-.4-.5-.2-.3-.1-.1-.1-.1-.1-.1h-.1l-.1-.1-.1-.1-1.2-1.1-.4-.3-.4-.3-.1-.1-.4-.3-.2-.1-.2-.1-.5-.3-.4-.2-.2-.1-.4-.2-.2-.1-.6-.2-.2-.1-.2-.1.1-.2-.2-.1-.4-.1-1.7-.4-2.6-.4-.9-.1h-1.6-.6-.7-.3-.3l-.8.1-.4.1-.4.1h-.1l-.4.1h-.2l-.4.1-.4.1-1.5.4c-2.5.7-4.9 1.7-7.3 2.7l-.2.1-.3.1-.6.2-.4.2.5-.1h.2.2l.2-.1h.1l.5-.1.6-.1h.1.1.1.2l.3-.1.8-.1.4-.1.4-.1h.3l.4-.1h.1l.5-.1 1.6-.2 1.1-.1 1.2-.1h.6.5 1.4l2.7.1h1.1c2.9 0 5.5.6 7.7 1.9l.1.1.1.1.1.1.1.1.2.2.4.3.2.1.2.2.1.1.2.1.2.2.2.2.2.2.4.4.1.1.1.1.1.1.1.1.7.8.3.4v.1l.1.2.1.2.1.1.1.2.1.2v.1l.1.1.1.2.2.3.1.2.1.1.1.1v.1l.1.1.1.2v.1.1.1l.1.1v.1.1l.1.1.1.1.2.5c3.6 9.5 3.1 18.9-3.4 27.3l-.3.4-.1.2-.1.1-.1.1v.1l-.1.2-.2.2-.1.1-.9 1-.5.5-1.6 1.4-.6.4-.6.4-3.3 1.9-.5.2-.6.3-.5.2-.5.2-.3.1-.3.1-1 .4-1.1.3-.2.1-.2.1h-.1l-.2.1h-.1l-.2.1h-.1-.1l-.2.1h-.2l-.6.1-.3.1h-.2l-.2.1h-.1-.1-.1l-.3.1h-.1-.1l-.5.1-.5.1-.5.1h-.3l-.3.1h-.2-.2-.2-.1-.1-.1-.1-.2c-1.1.1-2.3.2-3.6.2h-.1l-2.3-.1h-.1-.2-.1-.2-.2l-.6-.1-1.2-.2-.2-.1h-.1-.2-.2l-.4-.1h-.1c-2-.4-4.1-1.1-6.2-2l-1.4-.6-1.4-.6-.3-.2-.3-.2-1-.5-1-.5c-1.9-1-3.8-2.1-5.6-3.2-6.7-4.2-11.6-8.5-11.9-8.8l-1.8-1.6-.4-.4-1.7-1.7-.1-.1-.6-.6-.1-.1-.1-.2-.1-.1-.2-.2c-1.1-1.1-2.7-2.7-5.3-5.2l-.1-.1-.1-.1-.1-.1-.1-.1c-4.2-3.8-8.8-7.6-13.7-11.5l-.6-.5-.1-.1c-1.6-1.2-3.2-2.4-4.7-3.5l-3.1-2.2c-2.6-1.8-5.1-3.5-7.6-5.2l-3-1.9c-2-1.2-3.9-2.4-5.8-3.5v-.2-.2l.2-1 .1-.6.1-.6.3-1.2.3-1.2.6-2.4.4-1.3.5-1.3.1-.3.1-.3.6-1.1.7-1.1.8-1 .5-.6.6-.6 1.2-1 .8-.5 1.6-1 1.8-.8 1.3-.5 2.5-.9 1.3-.4 1-.3.5-.1.3-.1h.1.1l1.3-.3.6-.1.6-.1.5-.1.5-.1 1.1-.2 1-.1h.1l1.5-.2h.3.3.2.2l.7-.1h.3.3.3.6 1.3.3.2.1.1.1.4.5l.8.1 1.1.2.6.2.3.1.2.1h.1l.8.3.8.4.4.2.7.5.3.3.2.2-.3.3v.1l.1.1v.1.1l.2.2v.1l.2.4.2.5v.1.1.1.1.1.1.1.3.5l-.1.6-.7 1.6-2 2.7-.5.6-1.5 1.3-.4.3-.8.6-.2.1-.2.1-.9.5-2.6 1.4-.4.2-.2.1-.3.1-.1.1-.1.1-.2.1-.2.1h-.1-.1-.1-.1-.1l-.2.1-.1.1h-.1l-.2.1-.3.1-.5.2-.8.3-.2.1-.3.1-.2.1h-.1-.1l-.2.1-.3.1-.3.1-.1.1h-.1l-.3.1h-.1l-1.1.4-1.2.4-.6.2-.1.1h-.1-.1-.1-.1-.1l-2.1.5h-.1-.1-.1-.2-.1l-.6.1-3.4.4c-1.3.1-2.5.3-3.7.4 5.9 3.9 12.1 8.4 18.4 13.3 4.8 3.8 9.4 7.5 13.6 11.2l2.9 2.6.1.1 2.9 2.7h.3.3.3 1.6.3.3.7 1.1.8.4.2.3.1.4.1.2.2.7.1.2.2.4 1.2.2.4.2.2.4.2.1.1.1.3.3.7.4.1.2.7.4.3 1.5.3.7.7 1.5.5.3.6.1.3.3.6.4.4.7.4 1.3.7.2.2.2.1.4 1.5l3.1-.3.5-.2.3-.1.2-.1.1-.1.1-.1.1-.1c.8-.9 1.2-1.9 1.4-3.2l.1-.6v-.3-.5-.5-.7-.2-.3-.4-.4-.1-.1-.2-.8-.4-.4-.9l.1-2.3v-1.1-.3-.8-.3-.3-.3-.3-.1-.1-.3-.3-.4-.1-.1-.3-.1-.1l-.1-.6-.1-.6-.1-.6.4-.4-.3-2.4v-.2l-.3-2.1-.1-.5-.1-.4-.1-.5-.1-.5-.2-1.6-.1-.8-.1-.8-.1-.8-.4-2.4-.4-1.9v-.2l-.1-.4-.2-.8-.1-.2v-.1-.1-.1l-.1-.2v-.1l-.1-.2-.1-.1v-.1-.1-.1l-.2-.4v-.1l-.3-.6-.3-.5-.6-1-.4-.5-.4-.5-.2-.2-.1-.1-.1-.1-.1-.1-.2-.3-.2-.2-.7-.8-.1-.1-.1-.1-.5-.5-.3-.3-.3-.3-.3-.3-.2-.2-.1-.1-.3-.3-.3-.3-.2-.2-.1-.1-.1-.1-.3-.3-.4-.3-.1-.1-.2-.2-.1-.1-.1-.1-.6-.5-.6-.5-.6-.5-.2-.1-.3-.2-.1-.1-.1-.1-.1-.1-.5-.4-.5-.4-.3-.2-.3-.2-.8-.6-1-.7-.8-.5-1.1-.7-.5-.3-.1-.1-.2-.1-.1-.1-.1-.1h-.1-.1l-.5-.3-.3-.1-.4-.2-.3-.1-.5-.2h-.1l-.3-.1-.6-.2-.3-.1-.7-.1h-.4-.5l-2.2.1-1.2.3-.2.1-.3.1c-1.2.4-2.5.9-3.8 1.3l-1.4.5.8.9.6.5.7.5.3.2 1.9.9.2-.1h.1.1l.3-.1.4-.1h.2.2l.4-.1h.1.1.1.1.1.5.2.3.3.3.3l.3.1h.1.1.2.1l.6.2h.1.1.1l.3.1.2.1h.1.1.1l.2.1.2.1.4.2.9.5 1.5.9.3.2.4.5.5.3.5.3 1 .7-.5.3-.6.3-1.8.6-.4.1-.8.1-.8.1h-.6-.6l-1.2-.1-.5-.1-.5-.1-1.6-.4-.4-.1-.7-.3-1-.4-.5-.2-.5-.3-.5-.3-.5-.3-.2-.1-.2-.1-1.3-1-.7-.5-.6-.5-.2-.2-.3-.2-.1-.1-.3-.2-.4-.4-.7-.5-.6-.5-.4-.3-.4-.3-.1-.1-.1-.1-.1-.1-.3-.2-.3-.2-.1-.1-.1-.1-.1-.1-.2-.1-.5-.4-1.1-.6-.6-.3-.2-.1h-.1-.1-.1-.1-.1-.1-.1-.1-.1-.1-.1l-.4-.1h-.1-.1-.1-.1-.1l-1.1-.3-.4-.1h-.1-.1-.1-.1-.1-.1l-.4-.1-.4-.1-.7-.1h-.4-.1-.2-.5-.3-.3-.5-.5l-1.2.1h-.1-.1l-.5.1-.5.1-1.6.4c-1.5.3-3.1.7-4.6 1.1l-.3.1-.6.1-.4.1h-.1-.1l-.9.3-1.8.5h-.1l-.5.1-1.6.5-1.9.6-1.9.6-.3.1-1.5.5-.9.3-.9.3-1.3.5-.6.3-.7.4-.3.1-.3.1-1.5.9-.1.1-.1.1-.2.2-.4.3-.6.5-.3.3-.2.2-.1.1-.1.1-.2.2h-.1l-.1.1-.1.1-.1.1-.2.2-.4.4-.4.5-.3.4-.1.1-.1.1-.1.2-.2.2-.2.4-.1.1v.1l-.1.1-.1.1-.1.1-.1.1-.1.2-.1.2v.1.1l-.2.4-.1.2v.1l-.1.2-.2.4-.1.2-.2.5v.1l-.1.2-.1.2-.1.1-.1.2-.2.5-.1.4-.1.5v.1.1.1.1l-.1.2-.1.3-.1.5-.2 1-.6 2.6-.1.2-.5 2.1v.1.2l-.9-.2-.9-.2-.9-.2-.4-.1-.4-.1-.6-.1-.6-.1-1.5-.2-.9-.1-2.1-.3-.7-.1-.4-.1h-.4-.1-.1-.3-.1-.1l-.4-.1h-.1-.1-.2-.1-.1c-1.3-.1-3.6-.3-4.3-.3h-.1c-2.5-.1-10.5-.5-18.3 2.4 0 0-2.1.8-4.6 2.2-1.8 1-3.9 2.3-5.6 3.8l-.1.1-.1.1-.4.3-.1.1-.1.1-.1.1-.2.2-.1.1-.1.1-.1.2-.2.2-.2.3-.1.2-.1.2-.1.1-.1.1-.1.1-.1.1-.3.4-.2.3-.6 1-.3.5-.2.4v.1l-.2.5-.2.4-.1.4-.1.2-.1.2-.1.2-.1.2v.1l-.1.3v.1.1.1.1.1.1.1.1.2.1l-.1.3v.3.4.2.3.2.2.5.3.1.2l-.1.7v.3.2.2.3l.1.4.1.2v.1.1.1.1l.1.4v.1l.3 1v.1l.4 1 .1.1.1.3.2.4.1.3.2.4v.1l.2.3.1.1.1.3.2.2.3.4.2.3.2.3.1.2.2.2.1.1.1.1.4.5 1.4 1.6 2.5 2.4.3.2.1.1.1.1.1.1.1.1.1.1.1.1.1.1.1.1.3.2.1.1.1.1.1.1.1.1.1.1.1.1h.2l.7.5 1.6 1 .2.1.1.1.1.1.4.3.8.5h.1.1l.7.4.7.4.9.5.4.2.3.1.2.1.3.1h.1.1l.3.1.1.1h.1.1l.2.1.1.1.2.1.2.1.9.4.1.1h.1l.5.2.3.1.4.2.2.1.3.1.5.2.5.2.6.2.7.3.7.2.6.2.8.3.4.1.2.1h.1.1l.5.2.7.2.2.1h.1.1l.3.1h.1l.3.1.3.1.5.1.5.1.9.2.6.1.5.1.7.2h.2.1.1.1.1l1.6.3.1-.4.4-1.4.4-1.3-.4-.1-.4-.1-1.4-.2h-.1l-.7-.1-.7-.1h-.2-.1-.1l-.2-.1h-.2-.1-.1l-1.7-.4-3.5-1-2.5-.8-1-.4-1.6-.6-1.5-.7-.5-.3-1.1-.5-.9-.5-.9-.5-.3-.2-.3-.2-.8-.5-.4-.2-.4-.2-.1-.1h-.1l-.1-.1-.3-.2-.8-.6-.8-.6-.5-.3-.5-.3-.2-.1-.5-.4-.5-.4-.4-.4-.8-.8-.5-.5-1.5-1.6-.5-.6 1.4-1.3 1.6-1.3 3.1-2.1.9-.5.7-.3 2.1-.9.5-.2.5-.2.5-.2.2-.1.2-.1 1.3-.2c4.8-.8 9.7-.7 14.6-.4 2.7.2 5.3.5 7.9 1l.6.1.6.1 1.7.4 1.7.4.2.1 1.6.4.4.1.8.2.7.2 1.2.3 1.1.3 1.6.5 1.6.5.8.3.6.2.2.1.8.3.4.1c1.4.5 2.8 1 4.2 1.6l1.4.6 1.4.6 2.3 1 2.3 1 3 1.4 3 1.5 1.5.8.7.4.7.4.5.3.5.2.7.4.1.1.4.2 1.2.6.7.4.4.2.4.2.3.1.4.2.4.2.6.3h.1.1l.3.1.1.1h.1l.5.3h.1l.1.1 1.9 1.1 1 .6.8.5 2.4 1.5 1.9 1.2 1.3.8.7.4.8.5.1.1.4.2 1.2.7.2.1.4.2.2.1.6.4.4.3c1.5.9 3.8 2.3 7.2 4.3h.1.1l.3.1.1.1.1.1.1.1.1.1.1.1.1.1.1.1h.1.1.1l.2.1h.1.1l.6.3.2.1.1.1.1.1h.1l.1.1.3.1.3.1.2.1.1.1.2.1.2.1.2.1.4.2.2.1.2.1.3.2.3.2 1.9.9 1.1.5 1.2.5.3.1.8.3.4.1.9.3.2.1.1.1.3.1.6.2.8.2.8.2.5.1.5.1 2.1.4c1.4.3 2.7.4 4 .6l.9.1.9.1.9.1h.1.1.5l1.3.1h.6c1.4.1 2.5.1 3.2 0h.2.3.1.3.2.2.2.1.1.1.9.3.3.3.2.5.6l.9-.1.8-.1.5-.1.3-.1.4-.1.6-.1 1.3-.3.7-.2.4-.1.4-.1.3-.1.4-.1.2-.1.5-.2.6-.2.4-.1.2-.1.2-.1h.1l.1-.1.2-.1.4-.2.2-.1.4-.2.8-.4.2-.1h.1l.1-.1.1-.1.1-.1.3-.2 2.7-1.7.4-.3.5-.4.3-.2.1-.1.1-.1.3-.3.2-.1.2-.1.8-.8.4-.4.9-.9.1-.1.3-.4 2-2.7.5-.8.5-.8.1-.2.2-.4.2-.4.4-.7.9-2.3.3-.8.1-.4.1-.4.2-.8.2-.9.6-3 .2-1.9.1-1.3v-.6-.3-.3-.1.4zm-57.9-8 .9-1.5 1.4-9.9-.1-.6-.3-.5-.1-.2v-.2l.9-1.5.8-5.6-.1-.6-.3-.5-.1-.2v-.2l8.8-.9 1.8 1.8-.7 5.1.1.6.3.5.1.2v.2l-.9 1.4-1.3 9.4-2.3 2.3-8.8.9z" fill="#f9d121"/><path d="m146.6 107.9-.1.1h-.1l.1-.1z" fill="#301140"/><path d="m70.8 118.7-.1.1z" fill="#592c81"/><path d="m98 155.4-.5-.2h-.1z" fill="#592c81"/><path d="m105.1 110h-.3z" fill="#592c81"/><path d="m106.6 110.2h-.4l-.1-.1h.1z" fill="#592c81"/><path d="m112.2 111-1.5-.3.9.2z" fill="#592c81"/><path d="m113.8 111.3-.4-.1-.6-.1.6.1z" fill="#592c81"/><path d="m117 111.8-.9-.1z" fill="#592c81"/><path d="m123.9 95.6-.1.1z" fill="#592c81"/><path d="m126.6 93.5-.7.4-.1.1.1-.1z" fill="#592c81"/><path d="m143 87.6-.9.3-1.8.4 1.3-.3 1.1-.3z" fill="#592c81"/><path d="m154.9 85.4h-.5-.2.2z" fill="#592c81"/><path d="m155.1 85.4h.1-.1-.2z" fill="#592c81"/><path d="m155.7 85.4h-.5.2z" fill="#592c81"/><path d="m157.2 85.6h-.1z" fill="#592c81"/><path d="m157.5 85.7h-.1l-.2-.1.2.1z" fill="#592c81"/><path d="m160.9 86.8h-.1-.1l-.1-.1h-.1l.3.1z" fill="#592c81"/><path d="m164 88.8-.1-.1-.1-.1.1.1z" fill="#592c81"/><path d="m164.4 89.1-.3-.2z" fill="#592c81"/><path d="m164.6 89.3-.1-.1z" fill="#592c81"/><path d="m169.6 87.9-1.4.5z" fill="#592c81"/><path d="m167.9 91.9-.3-.2-.1-.1z" fill="#592c81"/><path d="m169.5 93-.7-.4-.6-.5z" fill="#592c81"/><path d="m171 94.2-.2-.2-1.3-1 1.3 1z" fill="#592c81"/><path d="m178.9 96.9-1.2-.1z" fill="#592c81"/><path d="m180.9 96.7-.8.1-.6.1.6-.1z" fill="#592c81"/><path d="m180.6 86.8-.5-.2z" fill="#592c81"/><path d="m189.4 92.5-.2-.2-.1-.1.1.1.1.1z" fill="#592c81"/><path d="m189.9 92.9-.6-.5z" fill="#592c81"/><path d="m191.2 94-.1-.1-.6-.5.6.5z" fill="#592c81"/><path d="m192.3 94.9-.3-.2-.4-.4.4.3z" fill="#592c81"/><path d="m192.6 95.2.2.2-.2-.2-.2-.2z" fill="#592c81"/><path d="m193.4 96-.3-.3-.3-.3z" fill="#592c81"/><path d="m196.5 99.2-.1-.1-.3-.3.2.2.1.1z" fill="#592c81"/><path d="m201.3 115.8-.1-.4-.1-1 .2 1z" fill="#592c81"/><path d="m202.3 123.3v-.5z" fill="#592c81"/><path d="m215.3 119.1-.8.1.4-.1z" fill="#592c81"/><path d="m217 118.9-.6.1h-.3-.4l-.4.1.4-.1z" fill="#592c81"/><path d="m220.7 168.9-1.8.7-2 .6-.4.1.7-.2.3-.1.4-.1.3-.1.3-.1.3-.1.5-.2.6-.2.4-.1.2-.1z" fill="#592c81"/><path d="m173.5 141.9-.6.1.4-.1z" fill="#451f59"/><path d="m175.3 141.9h-.7.1.2.3z" fill="#451f59"/><path d="m177.9 141.8h-.2l-.3.1h-.5.4l.2-.1h.2z" fill="#451f59"/><path d="m163.3 139.4 2.9 2.7z" fill="#592c81"/><g fill="#f9d121"><path d="m70.8 118.7-.1.1z"/><path d="m105.1 110h-.3z"/><path d="m106.6 110.2h-.4l-.1-.1h.1z"/><path d="m112.2 111-1.5-.3.9.2z"/><path d="m113.8 111.3-.4-.1-.6-.1.6.1z"/><path d="m117 111.8-.9-.1z"/><path d="m123.9 95.6-.1.1z"/><path d="m126.6 93.5-.7.4-.1.1.1-.1z"/><path d="m143 87.6-.9.3-1.8.4 1.3-.3 1.1-.3z"/><path d="m146.3 91.3h-.2-.2.2z"/><path d="m146.6 107.9-.1.1h-.1l.1-.1z"/><path d="m154.9 85.4h-.5-.2.2z"/><path d="m155.1 85.4h.1-.1-.2z"/><path d="m155.7 85.4h-.5.2z"/><path d="m157.2 85.6h-.1z"/><path d="m157.5 85.7h-.1l-.2-.1.2.1z"/><path d="m158.9 96v-.1-.1.1z"/><path d="m160.9 86.8h-.1-.1l-.1-.1h-.1l.3.1z"/><path d="m164 88.8-.1-.1-.1-.1.1.1z"/><path d="m164.4 89.1-.3-.2z"/><path d="m164.6 89.3-.1-.1z"/><path d="m169.6 87.9-1.4.5z"/><path d="m167.9 91.9-.3-.2-.1-.1z"/><path d="m169.5 93-.7-.4-.6-.5z"/><path d="m171 94.2-.2-.2-1.3-1 1.3 1z"/><path d="m178.9 96.9-1.2-.1z"/><path d="m180.9 96.7-.8.1-.6.1.6-.1z"/><path d="m180.6 86.8-.5-.2z"/><path d="m189.4 92.5-.2-.2-.1-.1.1.1.1.1z"/><path d="m189.9 92.9-.6-.5z"/><path d="m191.2 94-.1-.1-.6-.5.6.5z"/><path d="m192.3 94.9-.3-.2-.4-.4.4.3z"/><path d="m192.6 95.2.2.2-.2-.2-.2-.2z"/><path d="m193.4 96-.3-.3-.3-.3z"/><path d="m196.5 99.2-.1-.1-.3-.3.2.2.1.1z"/><path d="m166.2 142.1-2.9-2.7z"/><path d="m177.5 141.8-.1.1h-.5.4z"/><path d="m188.7 141.6h-.4-.2z"/><path d="m66.1 127.1v.2z"/><path d="m66.2 126.8v.2z"/><path d="m66.3 126.2v.1z"/><path d="m68.4 138-.2-.3-.1-.1.1.1z"/><path d="m74.3 140.4-1.4-1.6z"/><path d="m79.1 144.3-.8-.6-.5-.3.5.3z"/><path d="m80.9 145.5-.3-.3h-.1.1z"/><path d="m82.7 131.5-.5.2-2.1 1 2.1-1z"/><path d="m83.6 147-.9-.5-.3-.2.3.2z"/><path d="m84.8 151-.2-.1h-.1.1z"/><path d="m85.4 130.8-1.3.2-.2.1.2-.1z"/><path d="m94.9 154.6-.3-.1z"/><path d="m102.4 152.9h-.4z"/><path d="m105.6 110.1-.4-.1z"/><path d="m110.8 132-1.7-.4-.6-.1.6.1z"/><path d="m117 111.7v.1z"/><path d="m118.7 104.4v.1z"/><path d="m119.4 102.5-.1.2-.2.5.2-.5z"/><path d="m119.9 112.8v.2z"/><path d="m120.3 100.3-.1.2z"/><path d="m121.2 98.9-.1.1z"/><path d="m123.2 96.3-.2.2-.4.4.4-.4z"/><path d="m125.8 94-.3.2z"/><path d="m133.9 139.7-2.3-1-1.4-.6 1.4.6z"/><path d="m135 93.6-2.5.9z"/><path d="m136.4 111.2-.2.1h-.1l.1-.1z"/><path d="m139.4 125.8-3.1-2.2z"/><path d="m138.2 92.7h-.2l-.3.1.3-.1z"/><path d="m139 110.6h-.1l-.2.1.2-.1z"/><path d="m139.3 110.5-.1.1h-.1l.1-.1z"/><path d="m140.2 88.4-.6.1z"/><path d="m142.4 109.6h-.1z"/><path d="m143 87.6-.9.3-.5.1 1.1-.3z"/><path d="m143.2 109.3-.2.1h-.2.2z"/><path d="m143.9 109-.1.1h-.2.2z"/><path d="m146.8 146-.7-.4-.4-.2.4.2z"/><path d="m147.2 107.7h-.1z"/><path d="m151.9 148.7-.1-.1z"/><path d="m153.4 91.6-1.1-.2z"/><path d="m153.1 149.3h-.1l-.5-.3.5.3z"/><path d="m154.9 85.4h-.5-.2.2z"/><path d="m155.4 92.2-.8-.3h-.1.1z"/><path d="m156.4 85.5-.7-.1h-.1-.4.2.2.1z"/><path d="m157.7 93.7-.3-.3z"/><path d="m158.9 96v-.1-.1.1z"/><path d="m160.5 86.7-.1-.1z"/><path d="m162.7 87.9-1.1-.6z"/><path d="m164.2 156.2-.8-.5-.7-.5.7.5z"/><path d="m163.7 88.5-.1-.1-.2-.1.2.1z"/><path d="m166.1 90.5-.6-.5-.4-.3.4.3z"/><path d="m167.5 91.6-.3-.2z"/><path d="m172.5 142h-.2-.4.4z"/><path d="m176.7 163.6h-.1z"/><path d="m177 163.8-.2-.1z"/><path d="m177.5 141.8-.1.1h-.1z"/><path d="m178 141.8h-.1-.4.2z"/><path d="m178.3 91.5-.1-.1z"/><path d="m178.4 164.5h-.1-.1.1z"/><path d="m178.9 96.9-1.2-.1z"/><path d="m180.9 96.7-.8.1-.6.1.6-.1z"/><path d="m181 165.9-.3-.1-.2-.1.2.1z"/><path d="m182.9 87.9h-.2z"/><path d="m183.4 88.3-.5-.3v-.1z"/><path d="m184.6 141.7h-.7-.4.4z"/><path d="m185.9 168.1-.3-.1z"/><path d="m189.4 92.5-.2-.2.1.1z"/><path d="m189.4 165.3-.3-.2-1-.5 1 .5z"/><path d="m189.9 92.9-.6-.5z"/><path d="m190.7 141.6h-.7-.3.3z"/><path d="m191.4 169.7-.5-.1-.8-.2.8.2z"/><path d="m193 119.7.1.2v.1l-.8 1.5-1.3 9.3-2.4 2.3-8.7 1v-.2l.8-1.5 1.4-9.9-.1-.6-.2-.5-.2-.1v-.2l.9-1.5.8-5.5-.1-.7-.3-.5-.1-.1v-.2l8.8-.9 1.8 1.8-.7 5v.7z"/><path d="m194.3 141.5h-.4-.3.2.1z"/><path d="m194.5 97-.3-.2z"/><path d="m198 170.9c-1.3-.2-2.6-.4-4-.6 1.3.2 2.7.4 4 .6"/><path d="m195.1 97.7-.1-.1z"/><path d="m196.4 99.1-.3-.3.2.2z"/><path d="m199.1 103.5-.1-.1v-.1.1z"/><path d="m199.4 104.3-.1-.1v-.1.1z"/><path d="m199.6 168.8-.2-.1z"/><path d="m200.8 112-.2-.8-.1-.8.1.8z"/><path d="m201.3 171.2h-.4v-.1z"/><path d="m201.8 169.1-.6-.1z"/><path d="m201.9 135.7-.1.5v.3-.3z"/><path d="m201.9 134.6v.3.1-.1z"/><path d="m202 132.2v.4l-.1.8.1-.8z"/><path d="m202.1 127.1v.3 1.1-1.1z"/><path d="m202.3 123.5v.3.1-.1z"/><path d="m202.3 123.3v-.5z"/><path d="m204.8 122.8h-.1l-.6.1.6-.1z"/><path d="m205 122.8h-.1-.1.1z"/><path d="m208.4 171.3h-.1-.1.1z"/><path d="m209.4 171.3h-.9z"/><path d="m209.1 168.9-.1.1h-.1-.1.1l.1-.1z"/><path d="m210.1 168.8h-.2l-.3.1.3-.1z"/><path d="m210.5 171.2h-.1l-.4.1.4-.1z"/><path d="m213.4 121.9h-.5-.6.6z"/><path d="m213.6 119.3-.2.1h-.4.4z"/><path d="m214.7 167.7-.1.1h-.2.1.1z"/><path d="m219 166.3-.5.2-.3.1.3-.1z"/><path d="m221.6 168.5-.4.2-.2.1.2-.1z"/><path d="m223.5 167.6-.2.1-.1.1.1-.1z"/><path d="m225.4 120.1h-.2l-.2-.1h.2z"/><path d="m226.4 120.5v.1l-.2-.1z"/><path d="m226.7 124.1-.1-.1-.2-.1.2.1z"/><path d="m227.2 124.4-.3-.2z"/><path d="m227.8 164.8-.1.1-.2.2.2-.2z"/><path d="m228.6 125.5-.2-.2-.2-.2.2.2z"/><path d="m228.9 122-.2-.1-.4-.3.4.3z"/><path d="m229.5 126.3h-.1z"/><path d="m231.1 128.5-.1-.2-.1-.1.1.1z"/><path d="m231.3 124-.1-.1z"/><path d="m231.6 124.3-.1-.1z"/><path d="m232.3 130.8-.1-.1v-.1.1z"/><path d="m233.9 127.4-.2-.3-.2-.2.2.2z"/><path d="m235.9 131.6-.1-.4-.1-.2.1.2z"/><path d="m236.7 133.7-.1-.2v-.1.1z"/><path d="m237.7 145.1-.2 1.9z"/><path d="m193.4 141.5h-.1-.1z"/><path d="m195.8 141.4-1 .1h-.3-.2z"/><path d="m201.3 115.8-.1-.4-.1-1 .2 1z"/><path d="m202.3 123.3v-.5z"/></g><path d="m184.3 201.2-.2.1-.1.1z" fill="#fff"/><path d="m119.1 141.7-.2.4-.4.6.4-.6z" fill="#fff"/><path d="m119.7 140.8-.1.1-.1.1.1-.1z" fill="#fff"/><path d="m120.2 140-.1.2-.2.3.2-.3z" fill="#fff"/><path d="m134.8 203.3-.2-.1-.9-.6-.7-.5-.2-.1-.2-.1-.5-.3-.6-.4h-.1l-.4-.3-.1-.1-.3-.3-.3-.2-.4-.3-.4-.4c1.5 1 3.1 1.9 4.7 2.8z" fill="#fff"/><path d="m138.8 192.3c-1.2 1.2-2.5 2.3-3.9 3.2l-2.9 1.9-3.2 1.6-.1-.1-.5-.4-.2-.2-.6-.5c1.4-.6 2.8-1.2 4.2-2.1-.4-1.9-.3-3.5-.3-4.4.4.6 1.1 1.9 2.3 3.1 1.4-.9 2.7-2 4-3.3 8.7-8.6 11.8-22.1 8.7-35.5-.4-1.6-.9-3.3-1.4-4.9l-1.4-3.5-.8-1.7.7-.4 1.4.8 1.1 2.7 1.2 3.5c.5 1.6.9 3.2 1.2 4.8 2.6 13.5-.7 26.7-9.5 35.4" fill="#fff"/><path d="m200.9 171.1h-.2.1z" fill="#fff"/><path d="m98.8 152.3 1.4.2-.7-.1z" fill="#592c81"/><path d="m102.4 152.9h-.4l-.3-.1-1.4-.2-.1-.1.1.1z" fill="#592c81"/><path d="m145.9 148.7-2.4-1.4h-.1l-.7-1.7.7-.4h.1l.4-.2.3-.2.3.5.3.7z" fill="#592c81"/><path d="m200.9 171.1h-.2.1z" fill="#592c81"/><path d="m208.4 171.3h-.1z" fill="#592c81"/><path d="m100.3 152.6 1.4.2.4.1.4.1zm-1.5-.3.7.1.7.1zm-1.4 2.9.6.1z" fill="#f9d121"/><path d="m177.2 163.9h-.1z" fill="#f9d121"/><path d="m199.8 168.8h-.2z" fill="#f9d121"/><path d="m201.2 169-1.2-.2h-.2.2z" fill="#f9d121"/><path d="m208.6 169h-.1z" fill="#f9d121"/><path d="m212.9 168.2h-.1l-.1.1.1-.1z" fill="#f9d121"/><path d="m214.6 167.8h-.2.1z" fill="#f9d121"/><path d="m215.3 119.1-.8.1.4-.1z" fill="#f9d121"/><path d="m217 118.9-.6.1h-.3-.4l-.4.1.4-.1z" fill="#f9d121"/><path d="m169.2 142.1h-2.8.3.3l1.6-.1h.2.4z" fill="#f9d121"/><path d="m208.6 169h-.1z" fill="#f9d121"/><path d="m214.6 167.8h-.2.1z" fill="#f9d121"/><path d="m220.7 168.9-1.8.7-2 .6-.4.1.7-.2.3-.1.4-.1.3-.1.3-.1.3-.1.5-.2.6-.2.4-.1.2-.1z" fill="#f9d121"/><path d="m200.2 140.4-.3.3v-.1h.1l.2-.1z" fill="#f9d121"/><path d="m240.2 124.4c-5.2-8.9-14.1-13.2-25.1-12.2-2.3.2-4.5.7-7 1.4l-.2-1.6c-.4-2.5-.7-4.8-1.1-7.3-.8-4.2-2.9-8-6.4-11.6-2-2.1-4.2-4-6.4-5.8l-1.6-1.1c-1.4-1-2.9-2.1-4.3-3.1l-.1-.1-2.2-1.4c-4.6-2.7-9.6-3.2-14.5-1.5l-3.5 1.2-1.6.5-1.8-1-3.3-1.3-.2-.1c-3.7-1.1-7.6-1.2-11.7-.4-7.7 1.6-14.7 3.6-21.2 6.1-8.5 3.2-14 9.5-16.4 18.8l-.9-.1-1.9-.3c-5.9-.7-10.5-.6-10.5-.6-1.9 0-4.5.2-7.6.7l-.7.1-1.9.3c-2.1.4-4.6.8-7.1 1.5-5.9 1.6-11.1 4.4-15.3 8.4-3.7 3.6-6 8.1-6.7 12.7-1.1 7.4 2.2 13.2 3.6 15.6 4.2 7.3 10.5 10.8 15.7 13.6 5.5 3 11.4 4.8 13.3 5.3 2 .6 3.7 1 5 1.3v1.2 1.7l.1 2.8c1.5 29.9 26 53.3 56 53.3 15 0 29.1-5.9 39.6-16.3 4.1 2.6 8.3 4.5 13.5 4.2 5.3-.3 9-2.7 10.4-3.6 6.5-4.3 8.7-10.7 9.2-12.7-5.6 2.7-8.8 3.1-10.4 3.2h-.9c-3.3-.2-5.5-2.8-6.5-3.8-.4-.5-1.9-2.1-3.9-3.9 1.4-3.1 2.5-6.2 3.3-9.5h.1l1.3-.1c3-.3 5.9-.7 8.8-1.4h.3l.2-.1 2.2-.6h.1c6.3-2 11.5-5.1 15.5-9.3s6.8-9.5 8.2-15.7c2.4-10 1.2-19.2-3.5-27.4m-41 54.7c-.5 1.6-1 3.1-1.6 4.6l-.6-.4c-1.9-1.3-3.8-2.5-5.9-3.1l-3.2-.3c-3 .2-6 1.9-9.1 5.1-2.9-3.8-6.7-5.8-11.2-4.8-2.9.7-5.7 2.3-8.2 4.1-4.3 3.1-8.2 6.8-12.4 10-3.2 2.4-5.4 3.3-8 3-1.6-.2-3-.9-4.1-1.7l-2.9 1.9c.4 1.5 1.1 3.2 2.1 4.8l.7 1.1.5.6c5.3 6.6 13.4 6.9 15.3 6.9 2.8.1 5.2-.4 7.4-1.2 1.8-.6 3.5-1.4 5.2-2.2 2.4-1.1 5.8-3 9.4-6 2.2-1.8 4.5-4 6.7-6.7l1.1 1.1c1.3 1.3 3 2.9 5.1 4.5l.5.4c-8.7 8.2-20.5 13.3-33.4 13.3-12.4 0-23.8-4.7-32.4-12.3-1.8.3-3.4.5-4.7.6l-.1-1.7 3.3-.4c-8.5-8.3-14-19.7-14.6-32.4l-.1-2.4v-1.4c.1-2.3.3-4.5.6-6.7.3-1.6.6-3.2 1.1-4.8l.7-2.4c.5-1.4 1-2.8 1.6-4.1l.4-.8c1.1-2.3 2.3-4.6 3.7-6.7 1.5-.3 3.2-.4 5-.3 1.5.1 2.9.3 4.1.5l3.3.6 3.8.9.5.1.5.1.5.2.5.2.9.3.5.2.9.4 1 .4 1 .4 1 .5c2.7 1.3 5.5 2.8 7.9 4.2l-.8-1.7.7-.4h.1l.4-.2.3-.2.2.5.3.7 1.1 2.7c2.5 1.4 4.1 2.5 4.1 2.5 4.4 2.8 8 5.2 11.3 7.4 5.2 3.5 6.2 4.4 8.8 6.1 2.9 1.9 9.2 6 17.3 9.2 3.1 1.2 7.2 2.6 12.2 3.7zm38.6-36.7v.2.3.3.6l-.1 1.3-.2 1.9-.6 3-.2.9-.2.8-.1.4-.1.4-.3.8-.9 2.3-.4.7-.2.4-.2.4-.6 1-.5.8-2 2.7-.3.4-.1.1-.8.9-.4.4-.8.8-.2.1-.2.1-.3.3-.1.1-.1.1-.3.2-.4.4-.4.3-2.7 1.7-.3.2-.1.1-.1.1-.1.1h-.1l-.2.1-.8.4-.4.2-.2.1-.4.2-.2.1-.1.1-.1.1-1.8.7-2.1.6-.4.1-1.3.3-.6.1-.4.1-.3.1-.5.1-.8.1-.9.1h-.6-.5-.2-.3-.3-.3-.9-.1-.1-.1-.2-.2-.2-.3-.6-.3c-1.9.1-3.7 0-5.4-.1h-.1-.4-.2-.4l-.4-.1-.9-.1-.9-.1c-1.3-.2-2.6-.4-4-.6l-2.1-.4-.5-.1-.5-.1-.8-.2-.8-.2-.6-.2-.3-.1-.1-.1-1.1-.3-.4-.1-.8-.3-.3-.1-1.2-.5-1.1-.5-1.9-.9-.3-.2-.3-.2-.2-.1-.2-.1-.4-.2-.2-.1-.2-.1-.2-.1-.1-.1-.7-.4-.2-.1h-.1l-.1-.1-.1-.1-.2-.1-.6-.3-.1-.1-.2-.1h-.1-.1-.1-.1l-.1-.1-.1-.1-.1-.1-.1-.1-.1-.1-.1-.1-.1-.1-.3-.1h-.1-.1c-3.4-2-5.7-3.4-7.2-4.3l-.4-.3-.6-.4-.2-.1-.4-.2-.2-.1-1.2-.7-.4-.2-.1-.1-.8-.5-.7-.4-1.3-.8-1.9-1.2-2.4-1.5-.8-.5-1-.6-1.9-1.1-.1-.1h-.1l-.5-.3h-.1l-.1-.1-.3-.1h-.1-.1l-.6-.3-.3-.2-.4-.2-.3-.1-.4-.2-.4-.2-.7-.4-1.2-.6-.4-.2-.1-.1-.7-.4-.5-.2-.5-.3-.7-.4-.7-.4-1.5-.8-3-1.5-3-1.4-2.3-1-2.3-1-1.4-.6-1.4-.6c-1.4-.6-2.8-1.1-4.2-1.6l-.4-.1-.8-.3-.2-.1-1.4-.5-1.6-.5-1.6-.5-1.1-.3-1.2-.3-.7-.2-.7-.2-.4-.1-1.6-.4-.3-.1-1.7-.4-1.7-.4-.6-.1-.6-.1c-2.6-.5-5.2-.8-7.9-1-4.9-.4-9.8-.5-14.6.4l-1.3.2-.2.1-.2.1-.5.2-.5.2-.5.2-2.1.9-.7.3-.9.5-3.1 2.1-1.6 1.3-1.4 1.3.5.6 1.5 1.6.5.5.8.8.4.4.5.4.5.4.2.2.4.3.5.3.8.6.8.6.3.2.1.1h.1l.1.1.4.2.4.2.8.5.3.2.3.2.9.5.9.5 1.1.5.5.2 1.5.7 1.6.6 1 .4 2.5.8 3.4 1 1.8.4h.1.1.2.2.1.1.2l1.4.3h.1l2.1.4-.4 1.3-.4 1.4-.1.4-1.6-.3h-.1-.1-.1-.2l-.7-.2-.5-.1-.5-.1-.9-.2-.4-.1-.5-.1-.3-.1-.3-.1h-.1l-.3-.1h-.1-.1-.2l-.7-.2-1.9-1.3h-.1-.1l-.2-.1-.4-.1-.8-.3-.6-.2-.7-.2-.7-.3-.6-.2-.5-.2-.5-.2-.3-.1-.2-.1-.4-.2-.3-.1-.5-.2h-.1l-.1-.1-.9-.4-.2-.1-.2-.1-.1-.1-.2-.1h-.1-.1-.1l-.3-.1h-.1-.1l-.3-.2-.2-.1-.3-.1-.4-.2-.9-.5-.7-.4-.7-.4h-.1-.1l-.8-.5-.5-.3-.1-.1-.1-.1-.2-.1-1.6-1-.5-.5-.2-.1-.1-.1-.1-.1-.1-.1-.1-.1-.1-.1-.1-.1-.3-.2-.1-.1-.1-.1-.1-.1-.1-.1-.1-.1-.1-.1-.1-.1-.1-.1-.3-.2-2.5-2.4-1.4-1.6-.4-.5-.1-.1-.1-.1-.2-.2-.2-.2-.2-.3-.2-.3-.3-.4-.2-.2-.1-.3-.1-.1-.2-.3v-.1l-.2-.4-.1-.3-.2-.4-.1-.3-.1-.1-.4-1-.1-.1-.3-1v-.1l-.1-.4v-.1-.1-.1-.1l-.1-.2-.1-.4-.1-.3v-.2-.2-.3l-.1-.7v-.2 0-.3-.5-.2-.2-.3-.2-.4-.3-.3-.1-.2-.1-.1-.1-.1-.1-.1-.1-.1l.1-.3v-.1l.1-.2.1-.2.1-.2.1-.2.1-.4.2-.4.2-.5v-.1l.2-.4.2-.5.6-1 .2-.3.3-.4.1-.1.1-.1.1-.1.1-.1.1-.2.1-.2.2-.3.1-.2.2-.2.1-.1.1-.1.2-.2.1-.1.1-.1.1-.1.4-.3.1-.1.1-.1c1.7-1.5 3.6-2.8 5.6-3.8 2.5-1.4 4.6-2.2 4.6-2.2 7.8-3 15.9-2.6 18.3-2.4h.1.9l2.7.2h.5.2.1.1.2.1l.4.1h.1.1.3.1.1l.4.1.4.1.7.1 2.1.3.9.1.9.1.6.1.6.1.6.1.4.1.4.1.9.2.9.2.9.2v-.2-.1l.5-2.1.1-.2.6-2.6.2-1 .1-.5.1-.3.1-.2v-.1-.1-.1-.1l.1-.5.1-.4.2-.5.1-.2.1-.1.1-.2.1-.1v-.1-.1l.2-.5.1-.2.2-.4.1-.2v-.1l.1-.2.2-.4v-.1-.1l.1-.2.1-.2.1-.1.1-.1.1-.1.1-.1v-.1-.1l.2-.4.2-.2.1-.2.1-.1.1-.1.3-.4.4-.5.4-.4.2-.2.1-.1.1-.1.1-.1h.1l.2-.2.1-.1.1-.1.1-.1.2-.2.3-.3.6-.5.4-.3.2-.2.1-.1.1-.1.7-.5.7-.4.3-.1.3-.1.7-.4.6-.3 1.3-.5.9-.3.9-.3 1.5-.5.3-.1 1.9-.6 1.9-.6 1.6-.5.5-.1h.1l1.3-.4 1.1-.3.3-.1h.1.1l.4-.1.6-.1.3-.1c1.5-.4 3.1-.8 4.6-1.1l1.6-.4.5-.1.5-.1h.1.1l1.2-.1h.5.5.3.3.5.2.1.1.3l.7.1.4.1.4.1h.1.1.1.1.1l.4.1 1.1.3h.1.1.1.1.1l.4.1h.1.1.1.1.1.1.1l.3.1.1.1.2.1.6.3 1.1.6.5.4.2.1.1.1.1.1.1.1.1.1.1.1.3.2.1.1.1.1.1.1.4.3.4.3.6.5.7.5.4.4.2.2.1.1.1.1.3.2.2.2 1.3 1 1.3 1 .2.1.2.1.5.3.5.3.5.3.5.2 1 .4.7.3.4.1 1.6.4.5.1.5.1 1.2.1h.6.6l.8-.1.8-.1.4-.1 1.8-.6.6-.3.5-.3-1-.7-.5-.3-.5-.3-.3-.2-.3-.2-1.5-.9-.9-.5-.4-.2-.2-.1-.2-.1h-.1-.1-.1l-.2-.1-.3-.1h-.1-.1-.1l-.6-.1h-.1-.2-.1-.1l-.3-.1h-.3-.3-.3-.3-.2-.5-.1-.1-.1-.1-.4-.2-.2l-.4.1-.3.1h-.1-.1l-.2.1-1.9-.9-.3-.2-.7-.5-.6-.5-.8-.9 1.4-.5c1.4-.5 2.6-.9 3.8-1.3l.3-.1.2-.1 1.2-.3 2.2-.1h.5.4l.7.1.3.1.6.2.3.1h.1l.5.2.7.3.3.1.1.1.3.2h.1.1l.1.1.1.1.2.1.1.1.5.3 1.1.7.8.5 1 .7.8.6.3.2.3.2.5.4.5.4.1.1.1.1.1.1.2.1.1.1.1.1.1.1.6.5.6.5.6.5.1.1.1.1.2.2.1.1.4.3.3.3.1.1.1.1.2.2.6.6.1.1.2.2.3.3.3.3.3.3.5.5.1.1.1.1.7.8.2.2.1.2.1.2.1.1.1.1.2.2.4.5.4.5.6 1 .3.5.3.6v.1l.2.4v.1.1.1l.1.1.1.2v.1l.1.2v.1.1.1l.1.2.2.8.1.4v.2l.4 1.9.4 2.4.1.8.1.8.1.8.2 1.6.1 1 .1.4.1.5.3 2.1v.2l.3 2.4.1.6.1.6.1.6.1.6.4-.2.6-.3.3-.1.3-.1c2.4-1.1 4.8-2 7.3-2.7l1.5-.4.4-.1.4-.1h.2l.4-.1h.1l.4-.1.8-.1.4-.1 1.3-.1h.6 1.6l.9.1 2.6.4 1.7.4.4.1.2.1.2.1.2.1.2.1.6.2.2.1.4.2.2.1.4.2.5.3.2.2.2.1.4.3.1.1.5.3.4.3 1.2 1.1.1.1.1.1h.1l.1.1.1.1.1.1.2.3.4.5.3.4.6.8.3.4.2.3.2.3.2.3.2.3.4.6.4.6.3.6.3.6.1.1.2.4.1.2.1.2.2.4.2.4.1.2.1.2.1.2.1.3.1.4v.1.1l.1.2.2.6.2.7.3 1.4.1.7.2 1.8.1.6v.6l.1.9v.3.1.5-.1z" fill="#592c81"/><path d="m141.6 88-1.3.3 1.8-.4z" fill="#f9d121"/><path d="m186 200.7c-8.7 8.2-20.5 13.3-33.4 13.3-12.4 0-23.8-4.7-32.4-12.3 2.6-.5 5.5-1.3 8.6-2.6l.4.3.4.4.4.3.3.2.3.3.1.1.4.3h.1l.6.4.5.3.2.1.2.1.7.5.9.6.2.1.5.6c5.3 6.6 13.4 6.9 15.2 6.9 2.8.1 5.2-.4 7.4-1.2h.4.4l1.5-.1h.4.1.2.3.6.2.3.1.5.1l.5-.1.8-.1.8-.1.3-.1h.3.1l1-.2.7-.1h.2l.2-.1.7-.2.7-.2.8-.2h.1.1l.5-.1h.1.1l.3-.1.3-.1.7-.2.3-.1.3-.1.7-.2.7-.2.6-.3.1-.1.6-.3h.1l.6-.3.1-.1h.1.1.1l.4-.2.9-.4.7-.3.1-.1.2-.1.1-.1.1-.1.4-.2.3-.1.2-.1 1.4-.8.5-.3h.1l.2-.2.6-.4.7-.5.2-.2h.1l.2-.1.6-.4.6-.4z" fill="#f2f1f1"/><path d="m127.2 197.9c-3.1 1.2-6.1 1.9-8.6 2.3-8.5-8.3-14-19.7-14.6-32.4l-.1-2.4v-1.4c.1-2.3.3-4.5.6-6.7.3-1.6.6-3.2 1.1-4.8l.7-2.4c.5-1.4 1-2.8 1.6-4.1l.4-.8c1.1-2.3 2.3-4.6 3.7-6.7 1.5-.3 3.2-.4 5-.3 1.5.1 2.9.2 4.1.5l-.1.1-.1.1-.1.2-.1.1-.3.4-.1.1-.3.4-.1.2-.2.3-.2.3-.1.1-.2.2-.3.5-.2.4-.4.6-.3.6-.1.3-.1.3-.1.1v.1l-.1.1-.5-.1c-.9 1.5-1.7 3.1-2.4 4.7l-1.3 3.5-.6 2v.1c-.4 1.3-.6 2.7-.9 4-.3 1.9-.5 3.8-.6 5.7v1.2 2c.7 12.5 6.7 23.4 15.9 30.6" fill="#f2f1f1"/><path d="m185.5 200.3-.6.4-.6.4-.2.2-.2.2-.7.5-.6.4-.3.2h-.1l-.5.3-1.4.8-.2.1-.3.1-.4.2-.1.1-.1.1-.2.1-.1.1-.9.5-.8.4-.4.2h-.1-.1-.1l-.1.1-.6.3-.6.3-.1.1-.7.3-.7.2-.7.2-.3.1-.3.1-.7.2-.4.1-.3.1h-.1-.1l-.5.1h-.1-.1l-.8.2-.7.2-.7.2-.2.1h-.2l-.7.1-1 .2h-.1-.3l-.3.1-.8.1-.8.1-.5.1h-.1-.5-.1-.3-.2-.6-.3-.3-.1-.4l-1.5.1h-.4-.4c1.8-.6 3.5-1.4 5.2-2.2 2.4-1.1 5.8-3 9.5-6 2.2-1.8 4.5-4 6.7-6.7l1.1 1.1c1.4 1.6 3.1 3.2 5.2 4.8" fill="#fff"/><path d="m199.6 177.6-.4 1.5c-.4 1.6-1 3.1-1.6 4.6l-.6-.4c-1.9-1.3-3.8-2.5-5.9-3.1l-3.2-.3c-3 .2-6 1.9-9.1 5.1-2.9-3.8-6.7-5.8-11.2-4.8-2.9.7-5.7 2.3-8.2 4.1-4.3 3.1-8.2 6.8-12.4 10-3.2 2.4-5.4 3.3-7.9 3-1.6-.2-3-.9-4.2-1.7 1.3-.9 2.6-2 3.9-3.2 8.8-8.7 12.1-22 9.5-35.4-.3-1.6-.7-3.2-1.2-4.8l-1.2-3.5c2.5 1.4 4.1 2.5 4.1 2.5 4.4 2.8 8 5.2 11.3 7.5 5.2 3.5 6.2 4.4 8.8 6.1 2.9 1.9 9.2 6 17.3 9.2 3.1 1.1 7.2 2.5 12.2 3.6" fill="#fff"/><path d="m134 202.2c-1.6-.8-3.2-1.7-4.7-2.8l-.1-.1-.2-.2 3.1-1.6c.3 1.5.9 3.1 1.9 4.7" fill="#fff"/><path d="m146.2 155.6c-.4-1.6-.9-3.3-1.4-4.9l-1.4-3.5c-4.8-2.8-11.2-6.1-15.2-7.1l-3.8-.9-3.3-.6-.1.1-.1.1-.1.2-.1.1-.3.4-.1.1-.3.4-.1.2-.2.3-.2.3-.1.1-.1.2-.3.5-.2.4-.4.6-.3.6-.1.3-.1.3-.1.1-.1.1-.1.1-.6-.1c-.9 1.5-1.7 3.1-2.4 4.7l-1.3 3.5-.6 2v.1c-.4 1.3-.7 2.7-.9 4-.3 1.9-.5 3.8-.5 5.7v1.2l.1 2c.6 12.4 6.6 23.3 15.8 30.5l.2-.1c1.4-.6 2.8-1.2 4.2-2.1-.4-1.9-.4-3.5-.3-4.4.4.6 1.1 1.9 2.3 3.1 1.4-.9 2.7-2 4-3.3 8.7-8.4 11.8-21.9 8.6-35.3m-20.9 40.1.6.6z" fill="#fff"/><path d="m134.9 195.6-2.9 1.9-.4-1.8c-.4-1.9-.3-3.5-.3-4.4.3.6 1.1 1.9 2.3 3.1z" fill="#592c81"/><path d="m182.1 161.2-.2-.2z" fill="#301140"/><path d="m199.8 168.8h-.2z" fill="#451f59"/><path d="m201.2 169-1.2-.2h-.2.2z" fill="#451f59"/><path d="m141.2 187.1-.6 1.2s-3.7-1.2-4.5-3.1.3-1.7.3-1.7 3.3 3.5 4.8 3.6" fill="#592c81"/><g clip-path="url(#a)" fill="#592c81"><path clip-path="url(#b)" d="m135.2 183.3h6.4v.3h-6.4z"/><path clip-path="url(#b)" d="m135.2 183.6h6.4v.8h-6.4z"/><path clip-path="url(#b)" d="m135.2 184.4h6.4v.8h-6.4z"/><path clip-path="url(#b)" d="m135.2 185.2h6.4v.8h-6.4z"/><path clip-path="url(#b)" d="m135.2 186h6.4v.8h-6.4z"/><path clip-path="url(#b)" d="m135.2 186.8h6.4v.8h-6.4z"/><path clip-path="url(#b)" d="m135.2 187.6h6.4v.7h-6.4z"/></g><path d="m151.6 148.8.2 1.4c-.3 1.2-2.1 2.1-4.5 1.9l-.2-.4.6-1.2z" fill="#592c81"/><g clip-path="url(#c)" fill="#592c81"><path clip-path="url(#d)" d="m146.7 148.7h6.6v.8h-6.6z"/><path clip-path="url(#d)" d="m146.7 149.6h6.6v.8h-6.6z"/><path clip-path="url(#d)" d="m146.7 150.4h6.6v.8h-6.6z"/><path clip-path="url(#d)" d="m146.7 151.2h6.6v.8h-6.6z"/><path clip-path="url(#d)" d="m146.7 152h6.6v.2h-6.6z"/></g><path d="m139.1 197.9s-3.3-1-4.2-2.4l-1.1.6s2.3 2.6 5.3 1.8" fill="#592c81"/><g clip-path="url(#e)" fill="#592c81"><path clip-path="url(#f)" d="m133.7 195.2h5.4v.5h-5.4z"/><path clip-path="url(#f)" d="m133.7 195.7h5.4v.8h-5.4z"/><path clip-path="url(#f)" d="m133.7 196.6h5.4v.8h-5.4z"/><path clip-path="url(#f)" d="m133.7 197.4h5.4v.8h-5.4z"/><path clip-path="url(#f)" d="m133.7 198.2h5.4v.5h-5.4z"/></g><path d="m124.9 194.7s2 3.8 3.3 4.4l-.9.1c-.5-.3-2.5-2.4-2.4-4.5" fill="#592c81"/><g clip-path="url(#g)" fill="#592c81"><path clip-path="url(#h)" d="m124.8 194.7h3.4v.2h-3.4z"/><path clip-path="url(#h)" d="m124.8 194.9h3.4v.8h-3.4z"/><path clip-path="url(#h)" d="m124.8 195.7h3.4v.8h-3.4z"/><path clip-path="url(#h)" d="m124.8 196.6h3.4v.8h-3.4z"/><path clip-path="url(#h)" d="m124.8 197.4h3.4v.8h-3.4z"/><path clip-path="url(#h)" d="m124.8 198.2h3.4v.8h-3.4z"/><path clip-path="url(#h)" d="m124.8 199h3.4v.6h-3.4z"/></g><path d="m120.9 201.4s.6 1.8 2.2 2.1c.1.1-2.2 0-2.2-2.1" fill="#592c81"/><g clip-path="url(#i)"><path clip-path="url(#j)" d="m120.9 201.4h2.3v2.1h-2.3z" fill="#592c81"/></g><path d="m139.1 190.9s-2.4-1-4-3.8c0 0 1.5 6 4 3.8" fill="#592c81"/><g clip-path="url(#k)" fill="#592c81"><path clip-path="url(#l)" d="m135.1 187.1h4v.5h-4z"/><path clip-path="url(#l)" d="m135.1 187.6h4v.8h-4z"/><path clip-path="url(#l)" d="m135.1 188.4h4v.8h-4z"/><path clip-path="url(#l)" d="m135.1 189.3h4v.8h-4z"/><path clip-path="url(#l)" d="m135.1 190.1h4v.8h-4z"/><path clip-path="url(#l)" d="m135.1 190.9h4v.8h-4z"/><path clip-path="url(#l)" d="m135.1 191.7h4v.8h-4z"/><path clip-path="url(#l)" d="m135.1 192.5h4v.6h-4z"/></g><path d="m140.1 189.7s2.6 2 4.6 1.6c0 0-2.9 2.1-5.2-.4z" fill="#592c81"/><g clip-path="url(#m)" fill="#592c81"><path clip-path="url(#n)" d="m139.1 189.7h5.6v.3h-5.6z"/><path clip-path="url(#n)" d="m139.1 190.1h5.6v.8h-5.6z"/><path clip-path="url(#n)" d="m139.1 190.9h5.6v.8h-5.6z"/><path clip-path="url(#n)" d="m139.1 191.7h5.6v.8h-5.6z"/><path clip-path="url(#n)" d="m139.1 192.5h5.6v.8h-5.6z"/><path clip-path="url(#n)" d="m139.1 193.3h5.6v.1h-5.6z"/></g><path d="m147.2 187.5s-3.7 0-4.9-1.3l-.7 1.2c.3 1 3.1 2 5.6.1" fill="#592c81"/><g clip-path="url(#o)" fill="#592c81"><path clip-path="url(#p)" d="m141.4 186.2h5.8v.6h-5.8z"/><path clip-path="url(#p)" d="m141.4 186.8h5.8v.8h-5.8z"/><path clip-path="url(#p)" d="m141.4 187.6h5.8v.8h-5.8z"/><path clip-path="url(#p)" d="m141.4 188.4h5.8v.8h-5.8z"/><path clip-path="url(#p)" d="m141.4 189.3h5.8v.1h-5.8z"/></g><path d="m143.8 182.7-.9 1.1c-.8.1-3.4-1.6-4-4.3 0 .1 3.4 3.1 4.9 3.2" fill="#592c81"/><g clip-path="url(#q)" fill="#592c81"><path clip-path="url(#r)" d="m138.9 179.6h4.9v.8h-4.9z"/><path clip-path="url(#r)" d="m138.9 180.3h4.9v.8h-4.9z"/><path clip-path="url(#r)" d="m138.9 181.1h4.9v.8h-4.9z"/><path clip-path="url(#r)" d="m138.9 182h4.9v.8h-4.9z"/><path clip-path="url(#r)" d="m138.9 182.8h4.9v.8h-4.9z"/><path clip-path="url(#r)" d="m138.9 183.6h4.9v.4h-4.9z"/></g><path d="m150.2 182.4s-1.1 3.1-5.9 1c0 0-1.2-1.3.1-1.7.1 0 3.1 1.4 5.8.7" fill="#592c81"/><g clip-path="url(#s)" fill="#592c81"><path clip-path="url(#t)" d="m143.1 181.7h7.1v.3h-7.1z"/><path clip-path="url(#t)" d="m143.1 182h7.1v.8h-7.1z"/><path clip-path="url(#t)" d="m143.1 182.8h7.1v.8h-7.1z"/><path clip-path="url(#t)" d="m143.1 183.6h7.1v.8h-7.1z"/><path clip-path="url(#t)" d="m143.1 184.4h7.1v.8h-7.1z"/><path clip-path="url(#t)" d="m143.1 185.2h7.1v.3h-7.1z"/></g><path d="m145.4 178.1-.6 1.8s-4.3-.3-4.5-4.6c0 0 3.3 2.7 5.1 2.8" fill="#592c81"/><g clip-path="url(#u)" fill="#592c81"><path clip-path="url(#v)" d="m140.3 175.3h5.6v.2h-5.6z"/><path clip-path="url(#v)" d="m140.3 175.5h5.6v.8h-5.6z"/><path clip-path="url(#v)" d="m140.3 176.3h5.6v.8h-5.6z"/><path clip-path="url(#v)" d="m140.3 177.1h5.6v.8h-5.6z"/><path clip-path="url(#v)" d="m140.3 177.9h5.6v.8h-5.6z"/><path clip-path="url(#v)" d="m140.3 178.7h5.6v.8h-5.6z"/><path clip-path="url(#v)" d="m140.3 179.5h5.6v.4h-5.6z"/></g><path d="m152.3 177s-2.3 1.3-6.4.4c0 0-.9 1.1.4 1.2 1.3.2 4.3 1.3 6-1.6" fill="#592c81"/><g clip-path="url(#w)" fill="#592c81"><path clip-path="url(#x)" d="m145 177h7.3v.1h-7.3z"/><path clip-path="url(#x)" d="m145 177.1h7.3v.8h-7.3z"/><path clip-path="url(#x)" d="m145 177.9h7.3v.8h-7.3z"/><path clip-path="url(#x)" d="m145 178.7h7.3v.8h-7.3z"/><path clip-path="url(#x)" d="m145 179.5h7.3v.4h-7.3z"/></g><path d="m147 173-.6 1.7c-.6.4-4.3-1-5.3-2.9l.5-1.1z" fill="#592c81"/><g clip-path="url(#y)" fill="#592c81"><path clip-path="url(#z)" d="m140.9 170.8h6.2v.7h-6.2z"/><path clip-path="url(#z)" d="m140.9 171.4h6.2v.8h-6.2z"/><path clip-path="url(#z)" d="m140.9 172.2h6.2v.8h-6.2z"/><path clip-path="url(#z)" d="m140.9 173h6.2v.8h-6.2z"/><path clip-path="url(#z)" d="m140.9 173.9h6.2v.8h-6.2z"/><path clip-path="url(#z)" d="m140.8 174.7h6.2v.4h-6.2z"/></g><path d="m153.9 171.1s-.6 1.3-2.7 1.8-3.9.3-3.9.3l.4-2c0-.1 4.7-.6 6.2-.1" fill="#592c81"/><g clip-path="url(#A)" fill="#592c81"><path clip-path="url(#B)" d="m147.3 170.6h6.6v.8h-6.6z"/><path clip-path="url(#B)" d="m147.3 171.4h6.6v.8h-6.6z"/><path clip-path="url(#B)" d="m147.3 172.2h6.6v.8h-6.6z"/><path clip-path="url(#B)" d="m147.3 173h6.6v.3h-6.6z"/></g><path d="m147.7 167.4-.1 2.1-6.1-2.5-.2-1.4c.1 0 4.7.4 6.4 1.8" fill="#592c81"/><g clip-path="url(#C)" fill="#592c81"><path clip-path="url(#D)" d="m141 165.6h7.4v.1h-7.4z"/><path clip-path="url(#D)" d="m141 165.8h7.4v.8h-7.4z"/><path clip-path="url(#D)" d="m141 166.6h7.4v.8h-7.4z"/><path clip-path="url(#D)" d="m141 167.4h7.4v.8h-7.4z"/><path clip-path="url(#D)" d="m141 168.2h7.4v.8h-7.4z"/><path clip-path="url(#D)" d="m141 169h7.4v.5h-7.4z"/></g><path d="m153.5 165.3-.4 1.7-4.5.9-.2-1.3z" fill="#592c81"/><g clip-path="url(#E)" fill="#592c81"><path clip-path="url(#F)" d="m148.1 165.1h6.1v.7h-6.1z"/><path clip-path="url(#F)" d="m148.1 165.8h6.1v.8h-6.1z"/><path clip-path="url(#F)" d="m148.1 166.6h6.1v.8h-6.1z"/><path clip-path="url(#F)" d="m148.1 167.4h6.1v.5h-6.1z"/></g><path d="m147.9 162.9-.1 1.8s-4.1-.3-5-1.7l-.9-1.4c0-.1 4.4.4 6 1.3" fill="#592c81"/><g clip-path="url(#G)" fill="#592c81"><path clip-path="url(#H)" d="m141.9 161.5h6.6v.2h-6.6z"/><path clip-path="url(#H)" d="m141.9 161.7h6.6v.8h-6.6z"/><path clip-path="url(#H)" d="m141.9 162.5h6.6v.8h-6.6z"/><path clip-path="url(#H)" d="m141.9 163.3h6.6v.8h-6.6z"/><path clip-path="url(#H)" d="m141.9 164.1h6.6v.5h-6.6z"/></g><path d="m153.9 159.5-1 1.9-4.4 1.4-.4-1.3z" fill="#592c81"/><g clip-path="url(#I)" fill="#592c81"><path clip-path="url(#J)" d="m147.6 159.5h6.5v.6h-6.5z"/><path clip-path="url(#J)" d="m147.6 160.1h6.5v.8h-6.5z"/><path clip-path="url(#J)" d="m147.6 160.9h6.5v.8h-6.5z"/><path clip-path="url(#J)" d="m147.6 161.7h6.5v.8h-6.5z"/><path clip-path="url(#J)" d="m147.6 162.5h6.5v.3h-6.5z"/></g><path d="m147.7 158.6-.5-1.8-5-.3-1 .6.5.7z" fill="#592c81"/><g clip-path="url(#K)" fill="#592c81"><path clip-path="url(#L)" d="m141.2 156.3h6.7v.5h-6.7z"/><path clip-path="url(#L)" d="m141.2 156.8h6.7v.8h-6.7z"/><path clip-path="url(#L)" d="m141.2 157.7h6.7v.8h-6.7z"/><path clip-path="url(#L)" d="m141.2 158.5h6.7v.3h-6.7z"/></g><path d="m153.1 154.4s.7 1.1-1 2-4.1 1.3-4.1 1.3l-.1-1.2c.6-.6 3.9-2.3 5.2-2.1" fill="#592c81"/><g clip-path="url(#M)" fill="#592c81"><path clip-path="url(#N)" d="m147.3 154.2h6.5v.3h-6.5z"/><path clip-path="url(#N)" d="m147.3 154.4h6.5v.8h-6.5z"/><path clip-path="url(#N)" d="m147.3 155.2h6.5v.8h-6.5z"/><path clip-path="url(#N)" d="m147.3 156h6.5v.8h-6.5z"/><path clip-path="url(#N)" d="m147.3 156.8h6.5v.8h-6.5z"/><path clip-path="url(#N)" d="m147.3 157.7h6.5v.1h-6.5z"/></g><path d="m146.7 151.8.6 1.9-6.7-.8.8-1.4c.9-.5 3.3-.7 5.3.3" fill="#592c81"/><g clip-path="url(#O)" fill="#592c81"><path clip-path="url(#P)" d="m140.3 150.8h7.3v.3h-7.3z"/><path clip-path="url(#P)" d="m140.3 151.2h7.3v.8h-7.3z"/><path clip-path="url(#P)" d="m140.3 152h7.3v.8h-7.3z"/><path clip-path="url(#P)" d="m140.3 152.8h7.3v.8h-7.3z"/><path clip-path="url(#P)" d="m140.3 153.6h7.3v.1h-7.3z"/></g><path d="m145.6 146.8s1 .6.9 2l-6.5.2-.4-1.3c.9-.6 4.1-1.6 6-.9" fill="#592c81"/><g clip-path="url(#Q)" fill="#592c81"><path clip-path="url(#R)" d="m138.8 146.1h7.8v.3h-7.8z"/><path clip-path="url(#R)" d="m138.8 146.3h7.8v.8h-7.8z"/><path clip-path="url(#R)" d="m138.8 147.1h7.8v.8h-7.8z"/><path clip-path="url(#R)" d="m138.8 147.9h7.8v.8h-7.8z"/><path clip-path="url(#R)" d="m138.8 148.7h7.8v.2h-7.8z"/></g><path d="m141.6 194.8s-3.4-.9-4.2-2.2l-1 .9c.3 1 2.8 2.3 5.2 1.3" fill="#592c81"/><g clip-path="url(#S)" fill="#592c81"><path clip-path="url(#T)" d="m136.1 192.6h5.4v.8h-5.4z"/><path clip-path="url(#T)" d="m136.1 193.3h5.4v.8h-5.4z"/><path clip-path="url(#T)" d="m136.1 194.1h5.4v.8h-5.4z"/><path clip-path="url(#T)" d="m136.1 194.9h5.4v.8h-5.4z"/><path clip-path="url(#T)" d="m136.1 195.7h5.4v.1h-5.4z"/></g><path d="m136.1 192.9-.4 1.2c-.6 0-3.9-2.1-3.1-4.6.1 0 2.1 2.7 3.5 3.4" fill="#592c81"/><g clip-path="url(#U)" fill="#592c81"><path clip-path="url(#V)" d="m131.9 189.5h4.4v.5h-4.4z"/><path clip-path="url(#V)" d="m131.9 190.1h4.4v.8h-4.4z"/><path clip-path="url(#V)" d="m131.9 190.9h4.4v.8h-4.4z"/><path clip-path="url(#V)" d="m131.9 191.7h4.4v.8h-4.4z"/><path clip-path="url(#V)" d="m131.9 192.5h4.4v.8h-4.4z"/><path clip-path="url(#V)" d="m131.9 193.3h4.4v.8h-4.4z"/></g><path d="m133.6 195.5-.5.8-2.8-2.5-.3-1.9s2.1 3.3 3.6 3.6" fill="#592c81"/><g clip-path="url(#W)" fill="#592c81"><path clip-path="url(#X)" d="m129.9 191.9h3.9v.6h-3.9z"/><path clip-path="url(#X)" d="m129.9 192.5h3.9v.8h-3.9z"/><path clip-path="url(#X)" d="m129.9 193.3h3.9v.8h-3.9z"/><path clip-path="url(#X)" d="m129.9 194.1h3.9v.8h-3.9z"/><path clip-path="url(#X)" d="m129.9 194.9h3.9v.8h-3.9z"/><path clip-path="url(#X)" d="m129.9 195.7h3.9v.7h-3.9z"/></g><path d="m136.4 200.1s-3.3-.9-4.3-2.7l-.9.3c-.1 0 2 2.8 5.2 2.4" fill="#592c81"/><g clip-path="url(#Y)" fill="#592c81"><path clip-path="url(#Z)" d="m131.1 197h5.3v.4h-5.3z"/><path clip-path="url(#Z)" d="m131.1 197.4h5.3v.8h-5.3z"/><path clip-path="url(#Z)" d="m131.1 198.2h5.3v.8h-5.3z"/><path clip-path="url(#Z)" d="m131.1 199h5.3v.8h-5.3z"/><path clip-path="url(#Z)" d="m131.1 199.8h5.3v.7h-5.3z"/></g><path d="m130.8 197.2-.6.9-2.4-2.2-.4-2.4c.1 0 2 3.1 3.4 3.7" fill="#592c81"/><g clip-path="url(#aa)" fill="#592c81"><path clip-path="url(#ab)" d="m127.5 193.5h3.4v.6h-3.4z"/><path clip-path="url(#ab)" d="m127.5 194.1h3.4v.8h-3.4z"/><path clip-path="url(#ab)" d="m127.5 194.9h3.4v.8h-3.4z"/><path clip-path="url(#ab)" d="m127.5 195.7h3.4v.8h-3.4z"/><path clip-path="url(#ab)" d="m127.5 196.6h3.4v.8h-3.4z"/><path clip-path="url(#ab)" d="m127.5 197.4h3.4v.7h-3.4z"/></g><path d="m133.2 201.6s-2.9-1-3.6-2.7l-1.1.3s1.9 2.3 4.7 2.4" fill="#592c81"/><g clip-path="url(#ac)" fill="#592c81"><path clip-path="url(#ad)" d="m128.5 198.9h4.7v.1h-4.7z"/><path clip-path="url(#ad)" d="m128.5 199h4.7v.8h-4.7z"/><path clip-path="url(#ad)" d="m128.5 199.8h4.7v.8h-4.7z"/><path clip-path="url(#ad)" d="m128.5 200.6h4.7v1h-4.7z"/></g><path d="m131 202.8s-2.9-.9-3.9-3l-.7.2c0 .1 1.4 3.1 4.6 2.8" fill="#592c81"/><g clip-path="url(#ae)" fill="#592c81"><path clip-path="url(#af)" d="m126.4 199.8h4.6v.8h-4.6z"/><path clip-path="url(#af)" d="m126.4 200.6h4.6v2.5h-4.6z"/></g><path d="m126.2 199.6-1.2.4-2.6-2.7-.2-2.2 1.2 1.9z" fill="#592c81"/><g clip-path="url(#ag)" fill="#592c81"><path clip-path="url(#ah)" d="m122.1 195.1h4.1v.6h-4.1z"/><path clip-path="url(#ah)" d="m122.1 195.7h4.1v.8h-4.1z"/><path clip-path="url(#ah)" d="m122.1 196.5h4.1v.8h-4.1z"/><path clip-path="url(#ah)" d="m122.1 197.4h4.1v.8h-4.1z"/><path clip-path="url(#ah)" d="m122.1 198.2h4.1v.8h-4.1z"/><path clip-path="url(#ah)" d="m122.1 199h4.1v.8h-4.1z"/><path clip-path="url(#ah)" d="m122.2 199.8h4.1v.5h-4.1z"/></g><path d="m127.6 203.4s-2.4-1.6-2.9-2.8l-.4.6c0 .3 1.7 2.2 3.3 2.2" fill="#592c81"/><g clip-path="url(#ai)"><path clip-path="url(#aj)" d="m124.1 200.6h3.4v2.8h-3.4z" fill="#592c81"/></g><path d="m123.9 200.7-1.4-1-1.8-1.8-.7-1.5.8 2.4 1.8 2z" fill="#592c81"/><g clip-path="url(#ak)" fill="#592c81"><path clip-path="url(#al)" d="m120.1 196.4h3.8v.2h-3.8z"/><path clip-path="url(#al)" d="m120.1 196.6h3.8v.8h-3.8z"/><path clip-path="url(#al)" d="m120.1 197.4h3.8v.8h-3.8z"/><path clip-path="url(#al)" d="m120.1 198.2h3.8v.8h-3.8z"/><path clip-path="url(#al)" d="m120.1 199h3.8v.8h-3.8z"/><path clip-path="url(#al)" d="m120.1 199.8h3.8v.8h-3.8z"/><path clip-path="url(#al)" d="m120 200.6h3.8v.2h-3.8z"/></g><path d="m125.5 204-.1-.1-2.6-2.6s.2 2.5 2.7 2.7" fill="#592c81"/><g clip-path="url(#am)"><path clip-path="url(#an)" d="m122.8 201.3h2.7v2.7h-2.7z" fill="#592c81"/></g><path d="m121.5 200.8s-2.2-1.4-2.9-3.3c0 0 .3 3.3 2.9 3.3" fill="#592c81"/><g clip-path="url(#ao)" fill="#592c81"><path clip-path="url(#ap)" d="m118.6 197.5h2.9v.6h-2.9z"/><path clip-path="url(#ap)" d="m118.6 198.2h2.9v.8h-2.9z"/><path clip-path="url(#ap)" d="m118.6 199h2.9v.8h-2.9z"/><path clip-path="url(#ap)" d="m118.6 199.8h2.9v.8h-2.9z"/><path clip-path="url(#ap)" d="m118.6 200.6h2.9v.2h-2.9z"/></g><path d="m119.6 200.5s-2-1.1-2.5-3.4c0 0 .3 3.2 2.5 3.4" fill="#592c81"/><g clip-path="url(#aq)" fill="#592c81"><path clip-path="url(#ar)" d="m117.1 197.1h2.5v.2h-2.5z"/><path clip-path="url(#ar)" d="m117.1 197.4h2.5v.8h-2.5z"/><path clip-path="url(#ar)" d="m117.1 198.2h2.5v.8h-2.5z"/><path clip-path="url(#ar)" d="m117.1 199h2.5v.8h-2.5z"/><path clip-path="url(#ar)" d="m117.1 199.8h2.5v.7h-2.5z"/></g><path d="m120.6 200.8s.6 2.4 2.4 2.9c0 0-2.6-.3-2.4-2.9" fill="#592c81"/><g clip-path="url(#as)"><path clip-path="url(#at)" d="m120.4 200.8h2.6v2.9h-2.6z" fill="#592c81"/></g><path d="m118.7 200.2s-1.9-1.4-2.1-3c.1 0 0 2.5 2.1 3" fill="#592c81"/><g clip-path="url(#au)" fill="#592c81"><path clip-path="url(#av)" d="m116.6 197.2h2.1v.2h-2.1z"/><path clip-path="url(#av)" d="m116.6 197.4h2.1v.8h-2.1z"/><path clip-path="url(#av)" d="m116.6 198.2h2.1v.8h-2.1z"/><path clip-path="url(#av)" d="m116.6 199h2.1v.8h-2.1z"/><path clip-path="url(#av)" d="m116.6 199.8h2.1v.4h-2.1z"/></g><path d="m138.8 192.3c-1.2 1.2-2.5 2.3-3.9 3.2l-2.9 1.9-3.2 1.6h-.1c-3 1.3-6 2.1-8.6 2.6-1.8.3-3.4.5-4.7.6l-.1-1.7c.9-.1 2-.2 3.3-.4 2.5-.4 5.5-1.1 8.6-2.3l.2-.1c1.4-.6 2.8-1.2 4.2-2.1l2-1.3c1.4-.9 2.7-2 4-3.3 8.7-8.6 11.8-22.1 8.7-35.5-.4-1.6-.9-3.3-1.4-4.9l-1.4-3.5-.8-1.7.7-.4h.1l.4-.2.3-.2.2.5.3.7 1.1 2.7 1.2 3.5c.5 1.6.9 3.2 1.2 4.8 2.7 13.6-.6 26.8-9.4 35.5" fill="#592c81"/><path d="m202.9 146.1-.4-.7z" fill="#f9d121"/><path d="m226.4 156.9-.1.2v.1l-.4.5-.1.1c-.8 1.1-1.8 2.3-3 3.4-5.4 4.8-12 5.2-14.5 5.2-7.8.4-14.1-2.9-20.4-6.9l-.6-.4-2.7-1.8-1-.7-1.9-1.4-1.7-1.2-1.1-.9-2.2-1.8-.3-.2-2.9-2.6-2.4-2.4c4.3-.4 7.8-.6 10.2-.7 2.9-.2 4.7-.2 12.9-.6 1.9-.1 3.8-.2 5.6-.3l2.8.9.4.7-.4-.7c1.2.4 2.5.9 3.8 1.5 1.5.6 3.1 1.4 4.7 2.2 1.9 1 3.6 2.1 5.2 3.1 2.1 1.3 4.3 2.7 6.4 4l1.3.8c-2.2-3.8-5.1-6.4-8.4-8.6-3.2-2.2-6.6-4.3-9.9-6.4 8.3 2.9 16 6.7 20.7 14.7l-.2.1.2-.1z" fill="#f9d121"/><path d="m192.7 119.2-.1-.6.7-5.1-1.8-1.8-8.8.9v.2l.1.2.3.5.1.6-.8 5.6-.9 1.5v.2l.1.2.3.5.1.6-1.4 9.9-.9 1.5v.2l8.8-.9 2.3-2.3 1.3-9.4.9-1.4v-.2l-.1-.2zm-4.9 10.5-.6.6-2.9.3 2.1-15.3 2.9-.3.4.5z" fill="#592c81"/></svg>